<svg width="24" height="24" viewBox="0 0 24 24" fill="none" xmlns="http://www.w3.org/2000/svg">
<path d="M5.25 5.25V4.5C5.25 4.29289 5.41789 4.125 5.625 4.125H7.125C7.33211 4.125 7.5 4.29289 7.5 4.5V5.25M16.5 5.25V4.5C16.5 4.29289 16.6679 4.125 16.875 4.125H18.375C18.5821 4.125 18.75 4.29289 18.75 4.5V5.25M4.5 19.5H19.5C20.3284 19.5 21 18.8284 21 18V8.25C21 7.42157 20.3284 6.75 19.5 6.75H4.5C3.67157 6.75 3 7.42157 3 8.25V18C3 18.8284 3.67157 19.5 4.5 19.5Z" stroke="#233751" stroke-width="1.5"/>
<path d="M12.6254 9.75L10.5685 12.5268C10.3852 12.7743 10.5618 13.125 10.8698 13.125H13.1309C13.4389 13.125 13.6156 13.4757 13.4322 13.7232L11.3754 16.5" stroke="#FBCD57" stroke-width="1.3" stroke-linecap="round"/>
</svg>
