<svg width="24" height="24" viewBox="0 0 24 24" fill="none" xmlns="http://www.w3.org/2000/svg">
<path d="M4.875 7.875H19.125V6.375H4.875V7.875ZM19.875 8.625V18.375H21.375V8.625H19.875ZM19.125 19.125H4.875V20.625H19.125V19.125ZM4.125 18.375V8.625H2.625V18.375H4.125ZM4.875 19.125C4.46079 19.125 4.125 18.7892 4.125 18.375H2.625C2.625 19.6176 3.63236 20.625 4.875 20.625V19.125ZM19.875 18.375C19.875 18.7892 19.5392 19.125 19.125 19.125V20.625C20.3676 20.625 21.375 19.6176 21.375 18.375H19.875ZM19.125 7.875C19.5392 7.875 19.875 8.21079 19.875 8.625H21.375C21.375 7.38236 20.3676 6.375 19.125 6.375V7.875ZM4.875 6.375C3.63236 6.375 2.625 7.38236 2.625 8.625H4.125C4.125 8.21079 4.46079 7.875 4.875 7.875V6.375ZM10.125 4.125H13.875V2.625H10.125V4.125ZM13.875 4.125C14.4963 4.125 15 4.62868 15 5.25H16.5C16.5 3.80025 15.3247 2.625 13.875 2.625V4.125ZM9 5.25C9 4.62868 9.50368 4.125 10.125 4.125V2.625C8.67525 2.625 7.5 3.80025 7.5 5.25H9Z" fill="#233751"/>
<path d="M5.25 12C5.25 12 7.20395 13.5 12 13.5C16.7961 13.5 18.75 12 18.75 12" stroke="#FBCD57" stroke-width="1.5" stroke-linecap="round"/>
</svg>
