<svg width="24" height="24" viewBox="0 0 24 24" fill="none" xmlns="http://www.w3.org/2000/svg">
<path d="M7.875 8.625V12.375M9.75 10.5L6 10.5" stroke="#846CFE" stroke-width="1.5" stroke-linecap="round"/>
<path d="M21.7395 14.4426L22.489 14.4137L22.4888 14.4099L21.7395 14.4426ZM21.2052 10.9367L21.9326 10.754L21.9307 10.7465L21.2052 10.9367ZM20.1122 7.98679L20.7701 7.62635L20.7633 7.61457L20.1122 7.98679ZM14.3559 6.05246L14.5312 6.7817L14.5388 6.77987L14.5464 6.77787L14.3559 6.05246ZM9.64406 6.05246L9.46104 6.77983L9.46882 6.7817L9.64406 6.05246ZM3.88778 8.01097L3.23531 7.64098L3.23004 7.65059L3.88778 8.01097ZM2.79482 10.9608L3.52227 11.1435L3.52407 11.136L2.79482 10.9608ZM2.26048 14.4668L1.51119 14.4341L1.51106 14.4373L2.26048 14.4668ZM2.60051 17.2232L1.91026 17.5166L1.91461 17.5268L1.91925 17.5369L2.60051 17.2232ZM3.76634 18.3113L3.56116 19.0327L3.56869 19.0348L3.57627 19.0368L3.76634 18.3113ZM5.32078 18.142L5.03721 17.4477L5.03 17.4507L5.02286 17.4537L5.32078 18.142ZM8.42965 15.9417L8.93972 16.4916L8.94491 16.4868L8.95001 16.4819L8.42965 15.9417ZM15.5703 15.9417L15.05 16.4819L15.0551 16.4868L15.0603 16.4916L15.5703 15.9417ZM18.6792 18.142L18.3956 18.8365L18.407 18.8409L18.6792 18.142ZM20.2337 18.3113L20.4237 19.0368L20.4361 19.0336L20.4483 19.0299L20.2337 18.3113ZM21.3995 17.1991L20.7134 16.8958L20.7092 16.9057L21.3995 17.1991ZM16.875 8.625C16.875 8.21079 16.5392 7.875 16.125 7.875C15.7108 7.875 15.375 8.21079 15.375 8.625H16.875ZM15.375 9C15.375 9.41421 15.7108 9.75 16.125 9.75C16.5392 9.75 16.875 9.41421 16.875 9H15.375ZM16.875 12C16.875 11.5858 16.5392 11.25 16.125 11.25C15.7108 11.25 15.375 11.5858 15.375 12H16.875ZM15.375 12.375C15.375 12.7892 15.7108 13.125 16.125 13.125C16.5392 13.125 16.875 12.7892 16.875 12.375H15.375ZM14.625 11.25C15.0392 11.25 15.375 10.9142 15.375 10.5C15.375 10.0858 15.0392 9.75 14.625 9.75V11.25ZM14.25 9.75C13.8358 9.75 13.5 10.0858 13.5 10.5C13.5 10.9142 13.8358 11.25 14.25 11.25V9.75ZM18 11.25C18.4142 11.25 18.75 10.9142 18.75 10.5C18.75 10.0858 18.4142 9.75 18 9.75V11.25ZM17.625 9.75C17.2108 9.75 16.875 10.0858 16.875 10.5C16.875 10.9142 17.2108 11.25 17.625 11.25V9.75ZM22.4888 14.4099C22.4377 13.2396 22.2344 11.9559 21.9326 10.754L20.4778 11.1193C20.7589 12.2386 20.9442 13.4212 20.9902 14.4754L22.4888 14.4099ZM21.9307 10.7465C21.6318 9.60602 21.2488 8.50039 20.77 7.62641L19.4545 8.34718C19.85 9.06902 20.1956 10.0428 20.4797 11.1268L21.9307 10.7465ZM20.7633 7.61457C19.8429 6.00446 18.798 5.18908 17.5682 4.95048C16.4189 4.7275 15.2302 5.04749 14.1655 5.32705L14.5464 6.77787C15.6919 6.47712 16.5313 6.27727 17.2825 6.42302C17.9532 6.55315 18.6814 6.99509 19.4611 8.35901L20.7633 7.61457ZM14.1807 5.32322C13.4052 5.50958 12.634 5.73768 12 5.73768V7.23768C12.866 7.23768 13.898 6.93385 14.5312 6.7817L14.1807 5.32322ZM12 5.73768C11.366 5.73768 10.5948 5.50958 9.81929 5.32322L9.46882 6.7817C10.102 6.93385 11.134 7.23768 12 7.23768V5.73768ZM9.82706 5.32513C8.76893 5.05889 7.57872 4.74005 6.4318 4.96257C5.20078 5.20141 4.15565 6.01812 3.23538 7.64102L4.54019 8.38092C5.32008 7.00561 6.04798 6.565 6.7175 6.43511C7.47112 6.2889 8.30897 6.48991 9.46105 6.77979L9.82706 5.32513ZM3.23004 7.65059C2.75496 8.51767 2.34507 9.62206 2.06556 10.7857L3.52407 11.136C3.77891 10.0751 4.14624 9.1001 4.54552 8.37136L3.23004 7.65059ZM2.06741 10.7782C1.76557 11.9801 1.56231 13.2638 1.5112 14.4341L3.00977 14.4995C3.05581 13.4453 3.24115 12.2628 3.52223 11.1435L2.06741 10.7782ZM1.51106 14.4373C1.46064 15.7172 1.58029 16.7401 1.91026 17.5166L3.29077 16.9299C3.08641 16.449 2.96317 15.6827 3.0099 14.4963L1.51106 14.4373ZM1.91925 17.5369C2.25743 18.2714 2.79742 18.8155 3.56116 19.0327L3.97153 17.5899C3.71516 17.517 3.47794 17.3356 3.28178 16.9096L1.91925 17.5369ZM3.57627 19.0368C4.22718 19.2073 4.93409 19.1267 5.61869 18.8303L5.02286 17.4537C4.59022 17.641 4.22846 17.657 3.95641 17.5858L3.57627 19.0368ZM5.60435 18.8364C6.67957 18.3972 7.85274 17.4999 8.93972 16.4916L7.91959 15.3919C6.86921 16.3663 5.85646 17.1131 5.03721 17.4477L5.60435 18.8364ZM8.95001 16.4819C9.49535 15.9565 10.6646 15.6037 12 15.6037V14.1037C10.518 14.1037 8.86982 14.4763 7.9093 15.4016L8.95001 16.4819ZM12 15.6037C13.3355 15.6037 14.5047 15.9565 15.05 16.4819L16.0907 15.4016C15.1302 14.4763 13.482 14.1037 12 14.1037V15.6037ZM15.0603 16.4916C16.1473 17.4999 17.3204 18.3972 18.3956 18.8364L18.9628 17.4477C18.1435 17.1131 17.1308 16.3663 16.0804 15.3919L15.0603 16.4916ZM18.407 18.8409C19.0516 19.092 19.7558 19.2118 20.4237 19.0368L20.0436 17.5858C19.7885 17.6526 19.4241 17.6273 18.9515 17.4432L18.407 18.8409ZM20.4483 19.0299C21.1622 18.8167 21.7412 18.3125 22.0897 17.4924L20.7092 16.9057C20.5234 17.3429 20.2767 17.5157 20.019 17.5927L20.4483 19.0299ZM22.0855 17.5022C22.4214 16.7422 22.5391 15.7117 22.489 14.4137L20.9901 14.4716C21.0371 15.6882 20.9119 16.4469 20.7135 16.8959L22.0855 17.5022ZM15.375 8.625V9H16.875V8.625H15.375ZM15.375 12V12.375H16.875V12H15.375ZM14.625 9.75H14.25V11.25H14.625V9.75ZM18 9.75H17.625V11.25H18V9.75Z" fill="#233751"/>
</svg>
