<svg width="24" height="24" viewBox="0 0 24 24" fill="none" xmlns="http://www.w3.org/2000/svg">
<path d="M20.625 12C20.625 13.9955 19.9331 15.9292 18.6672 17.4717C17.4013 19.0142 15.6398 20.07 13.6827 20.4593C11.7256 20.8486 9.69403 20.5472 7.93421 19.6066C6.17439 18.6659 4.79516 17.1442 4.03154 15.3007C3.26792 13.4571 3.16715 11.4058 3.74639 9.49631C4.32564 7.58679 5.54906 5.9372 7.20821 4.82859C8.86735 3.71998 10.8596 3.22096 12.8454 3.41655C14.8312 3.61213 16.6878 4.49023 18.0988 5.90122" stroke="#233751" stroke-width="1.5" stroke-linecap="round"/>
<path d="M12.8272 6.61266C13.1023 6.05522 13.8972 6.05522 14.1723 6.61266L15.0886 8.46929C15.1978 8.69064 15.409 8.84407 15.6533 8.87957L17.7022 9.17729C18.3174 9.26668 18.563 10.0227 18.1179 10.4566L16.6353 11.9017C16.4585 12.074 16.3778 12.3223 16.4196 12.5656L16.7696 14.6062C16.8746 15.2189 16.2316 15.6861 15.6813 15.3969L13.8487 14.4334C13.6302 14.3185 13.3692 14.3185 13.1507 14.4334L11.3181 15.3969C10.7679 15.6861 10.1248 15.2189 10.2299 14.6062L10.5799 12.5656C10.6216 12.3223 10.541 12.074 10.3642 11.9017L8.88161 10.4566C8.43647 10.0227 8.6821 9.26668 9.29727 9.17729L11.3462 8.87957C11.5905 8.84407 11.8016 8.69064 11.9109 8.46928L12.8272 6.61266Z" stroke="#846CFE" stroke-width="1.5"/>
</svg>
