<svg width="24" height="24" viewBox="0 0 24 24" fill="none" xmlns="http://www.w3.org/2000/svg">
<path d="M16.2803 8.78033C16.5732 8.48744 16.5732 8.01256 16.2803 7.71967C15.9874 7.42678 15.5126 7.42678 15.2197 7.71967L16.2803 8.78033ZM6.73544 8.85291C6.6542 8.44674 6.25908 8.18333 5.85291 8.26456C5.44674 8.3458 5.18333 8.74092 5.26456 9.14709L6.73544 8.85291ZM14.8529 18.7354C15.2591 18.8167 15.6542 18.5533 15.7354 18.1471C15.8167 17.7409 15.5533 17.3458 15.1471 17.2646L14.8529 18.7354ZM12.5303 12.5303L16.2803 8.78033L15.2197 7.71967L11.4697 11.4697L12.5303 12.5303ZM7.03544 10.3529L6.73544 8.85291L5.26456 9.14709L5.56456 10.6471L7.03544 10.3529ZM13.3529 18.4354L14.8529 18.7354L15.1471 17.2646L13.6471 16.9646L13.3529 18.4354ZM6.375 5.25C6.375 5.87132 5.87132 6.375 5.25 6.375V7.875C6.69975 7.875 7.875 6.69975 7.875 5.25H6.375ZM5.25 6.375C4.62868 6.375 4.125 5.87132 4.125 5.25H2.625C2.625 6.69975 3.80025 7.875 5.25 7.875V6.375ZM4.125 5.25C4.125 4.62868 4.62868 4.125 5.25 4.125V2.625C3.80025 2.625 2.625 3.80025 2.625 5.25H4.125ZM5.25 4.125C5.87132 4.125 6.375 4.62868 6.375 5.25H7.875C7.875 3.80025 6.69975 2.625 5.25 2.625V4.125ZM19.5 5.625C19.5 6.24632 18.9963 6.75 18.375 6.75V8.25C19.8247 8.25 21 7.07475 21 5.625H19.5ZM18.375 6.75C17.7537 6.75 17.25 6.24632 17.25 5.625H15.75C15.75 7.07475 16.9253 8.25 18.375 8.25V6.75ZM17.25 5.625C17.25 5.00368 17.7537 4.5 18.375 4.5V3C16.9253 3 15.75 4.17525 15.75 5.625H17.25ZM18.375 4.5C18.9963 4.5 19.5 5.00368 19.5 5.625H21C21 4.17525 19.8247 3 18.375 3V4.5ZM19.875 18.75C19.875 19.3713 19.3713 19.875 18.75 19.875V21.375C20.1997 21.375 21.375 20.1997 21.375 18.75H19.875ZM18.75 19.875C18.1287 19.875 17.625 19.3713 17.625 18.75H16.125C16.125 20.1997 17.3003 21.375 18.75 21.375V19.875ZM17.625 18.75C17.625 18.1287 18.1287 17.625 18.75 17.625V16.125C17.3003 16.125 16.125 17.3003 16.125 18.75H17.625ZM18.75 17.625C19.3713 17.625 19.875 18.1287 19.875 18.75H21.375C21.375 17.3003 20.1997 16.125 18.75 16.125V17.625Z" fill="#233751"/>
<path d="M7.5 21C9.98528 21 12 18.9853 12 16.5C12 14.0147 9.98528 12 7.5 12C5.01472 12 3 14.0147 3 16.5C3 18.9853 5.01472 21 7.5 21Z" stroke="#F65E5E" strokeWidth="1.5" strokeLinecap="round" strokeLinejoin="round"/>
</svg>
