<svg width="24" height="24" viewBox="0 0 24 24" fill="none" xmlns="http://www.w3.org/2000/svg">
<path d="M15.9375 3.5625L5.43369 4.91318C4.68539 5.0094 4.125 5.64646 4.125 6.40093V18.75C4.125 19.5784 4.79657 20.25 5.625 20.25H18.375C19.2034 20.25 19.875 19.5784 19.875 18.75V11.5281" stroke="#233751" stroke-width="1.5" stroke-linecap="round"/>
<path d="M9 13.8836V16C9 16.2761 9.22386 16.5 9.5 16.5H11.6164C11.749 16.5 11.8762 16.4473 11.97 16.3536L20.6464 7.67708C20.8417 7.48182 20.8417 7.16524 20.6464 6.96998L18.53 4.85355C18.3348 4.65829 18.0182 4.65829 17.8229 4.85355L9.14645 13.53C9.05268 13.6238 9 13.751 9 13.8836Z" stroke="#48A2F5" stroke-width="1.5"/>
</svg>
