<svg width="72" height="32" viewBox="0 0 72 32" fill="none" xmlns="http://www.w3.org/2000/svg">
<ellipse cx="16.0498" cy="16" rx="16.0498" ry="16" fill="#00ACD8"/>
<path d="M46.1132 23.7591C46.107 18.3714 46.1163 12.9838 46.1101 7.59606C47.1873 7.59298 48.2645 7.59298 49.3417 7.59606C49.3293 12.9838 49.3386 18.3714 49.3355 23.7591C48.2614 23.7561 47.1873 23.7561 46.1132 23.7591Z" fill="#21293A"/>
<path d="M24.8996 8.64529C26.7948 8.64837 28.6899 8.64837 30.585 8.64529C32.7116 8.64837 34.8382 8.65144 36.9617 8.64221C36.9648 9.62067 36.9648 10.5991 36.971 11.5745C35.5172 11.5776 34.0666 11.5745 32.6128 11.5776C32.6159 15.6361 32.6159 19.6976 32.6128 23.7591C31.8443 23.7591 31.0727 23.7622 30.3041 23.7591C30.0387 23.7591 29.514 23.7561 29.2485 23.7561C29.2424 19.6976 29.2454 15.6391 29.2485 11.5776C27.7979 11.5776 26.3472 11.5745 24.8966 11.5776C24.8935 10.5991 24.8935 9.62375 24.8996 8.64529Z" fill="#21293A"/>
<path d="M35.0049 16.113C36.4555 13.1253 40.8908 12.0976 43.4773 14.1991C45.0206 15.5099 45.2891 17.6668 45.2058 19.5684C42.681 19.5714 40.1593 19.5438 37.6346 19.5868C37.9525 20.4238 38.5204 21.2822 39.4618 21.4761C40.6161 21.8576 41.7458 21.1684 42.4865 20.3314C43.2396 20.8822 43.9989 21.4207 44.7243 22.0084C42.5606 24.5376 38.2796 24.6853 35.9462 22.3222C34.3474 20.7314 34.0326 18.1099 35.0049 16.113ZM37.6222 17.3561C39.0945 17.393 40.5667 17.3868 42.039 17.3591C41.8878 16.393 41.1748 15.4238 40.113 15.4361C38.8939 15.2791 37.8753 16.2176 37.6222 17.3561Z" fill="#21293A"/>
<path d="M51.5053 15.0638C53.5331 12.7099 57.5024 12.4268 59.8543 14.4576C59.1444 15.1991 58.4314 15.9376 57.7246 16.6853C57.024 16.0145 55.9962 15.6976 55.0733 16.1007C53.0424 16.7838 52.9498 20.1222 54.9066 20.9468C55.8573 21.3991 57.0055 21.1776 57.7215 20.4114C58.4222 21.1807 59.1938 21.8914 59.8296 22.7222C57.5579 24.5376 53.993 24.4238 51.8633 22.4422C49.8633 20.5684 49.7182 17.1253 51.5053 15.0638Z" fill="#21293A"/>
<path d="M63.126 13.4638C65.6662 12.5745 68.9224 13.313 70.37 15.7007C71.5707 17.6853 71.3916 20.473 69.7836 22.1838C67.1755 25.0514 61.6074 24.5099 59.9808 20.8607C58.632 18.0822 60.1136 14.3591 63.126 13.4638ZM64.0458 16.2145C62.0982 17.1653 62.3575 20.6176 64.5489 21.0884C66.2156 21.6422 68.1446 20.2668 67.8823 18.4638C68.0551 16.5038 65.6662 15.2976 64.0458 16.2145Z" fill="#21293A"/>
<path d="M10.6168 8.61446C14.4595 8.61754 18.3022 8.61138 22.1449 8.58984C22.1634 9.59292 22.1696 10.5991 22.1603 11.6022C19.6232 14.6145 17.1232 17.6545 14.5891 20.6668C17.2003 20.6729 19.8115 20.6668 22.4227 20.6729C22.4196 21.7037 22.4196 22.7345 22.4196 23.7652C18.3948 23.7683 14.3669 23.7683 10.339 23.7683C10.339 22.7406 10.339 21.7129 10.3359 20.6852C12.9008 17.6452 15.4873 14.6175 18.0645 11.5868C15.5799 11.5806 13.0953 11.5898 10.6106 11.5837C10.6137 10.5929 10.6168 9.60523 10.6168 8.61446Z" fill="white"/>
</svg>
