<svg width="24" height="24" viewBox="0 0 24 24" fill="none" xmlns="http://www.w3.org/2000/svg">
<path d="M15.1436 17.7005C13.3291 18.7481 10.4428 17.1458 8.69685 14.1217C6.95089 11.0976 7.00641 7.79684 8.82087 6.74927" stroke="#48A2F5" stroke-width="1.5" stroke-linecap="round"/>
<path d="M18.1082 8.68775C17.9011 8.32903 17.4424 8.20612 17.0837 8.41323C16.725 8.62033 16.6021 9.07903 16.8092 9.43775L18.1082 8.68775ZM12.8068 13.6508L13.1818 14.3004L12.8068 13.6508ZM7.15699 15.0104C6.94988 14.6517 6.49119 14.5288 6.13247 14.7359C5.77375 14.943 5.65085 15.4017 5.85795 15.7604L7.15699 15.0104ZM12 20.25C7.44365 20.25 3.75 16.5563 3.75 12H2.25C2.25 17.3848 6.61522 21.75 12 21.75V20.25ZM20.25 12C20.25 16.5563 16.5563 20.25 12 20.25V21.75C17.3848 21.75 21.75 17.3848 21.75 12H20.25ZM12 3.75C16.5563 3.75 20.25 7.44365 20.25 12H21.75C21.75 6.61522 17.3848 2.25 12 2.25V3.75ZM12 2.25C6.61522 2.25 2.25 6.61522 2.25 12H3.75C3.75 7.44365 7.44365 3.75 12 3.75V2.25ZM16.8092 9.43775C16.716 9.27647 16.8406 9.2296 16.6891 9.51022C16.5609 9.7476 16.3071 10.0726 15.9107 10.4636C15.1261 11.2374 13.9051 12.1507 12.4318 13.0013L13.1818 14.3004C14.7326 13.405 16.065 12.4183 16.964 11.5315C17.4095 11.0922 17.7801 10.6468 18.009 10.2229C18.2145 9.84214 18.4288 9.24301 18.1082 8.68775L16.8092 9.43775ZM12.4318 13.0013C10.9585 13.8519 9.55703 14.4527 8.4946 14.7453C7.9578 14.8931 7.54947 14.9504 7.2798 14.9427C6.96103 14.9336 7.06388 14.8492 7.15699 15.0104L5.85795 15.7604C6.17853 16.3157 6.80452 16.4297 7.23701 16.442C7.7186 16.4558 8.28966 16.3575 8.89282 16.1914C10.1103 15.8562 11.631 15.1957 13.1818 14.3004L12.4318 13.0013Z" fill="#233751"/>
</svg>
