<svg width="24" height="24" viewBox="0 0 24 24" fill="none" xmlns="http://www.w3.org/2000/svg">
<path d="M9.05432 3.49303L9.29969 4.20176L9.05432 3.49303ZM6.31202 19.9197C6.64827 20.1616 7.11694 20.0851 7.35883 19.7488C7.60072 19.4126 7.52423 18.9439 7.18798 18.702L6.31202 19.9197ZM21.75 11.9999C21.75 11.5857 21.4142 11.2499 21 11.2499C20.5858 11.2499 20.25 11.5857 20.25 11.9999H21.75ZM16.812 18.702C16.4758 18.9439 16.3993 19.4126 16.6412 19.7488C16.8831 20.0851 17.3517 20.1616 17.688 19.9197L16.812 18.702ZM8.80894 2.78431C4.99232 4.10569 2.25 7.73158 2.25 11.9999H3.75C3.75 8.3904 6.06848 5.32046 9.29969 4.20176L8.80894 2.78431ZM11.25 5.99992V12.9374H12.75V5.99992H11.25ZM7.18798 18.702C5.10435 17.2031 3.75 14.7597 3.75 11.9999H2.25C2.25 15.2627 3.85344 18.151 6.31202 19.9197L7.18798 18.702ZM20.25 11.9999C20.25 14.7597 18.8956 17.2031 16.812 18.702L17.688 19.9197C20.1466 18.151 21.75 15.2627 21.75 11.9999H20.25ZM9.29969 4.20176C9.79715 4.02953 10.2521 4.15442 10.6121 4.47897C10.9873 4.81708 11.25 5.37314 11.25 5.99992H12.75C12.75 4.96983 12.3227 4.00143 11.6164 3.36478C10.8951 2.71459 9.87716 2.41447 8.80894 2.78431L9.29969 4.20176Z" fill="#233751"/>
<path d="M15.375 21H8.625L8.625 17.625C8.625 15.761 10.136 14.25 12 14.25C13.864 14.25 15.375 15.761 15.375 17.625V21Z" stroke="#FBCD57" stroke-width="1.5"/>
</svg>
