<svg width="24" height="24" viewBox="0 0 24 24" fill="none" xmlns="http://www.w3.org/2000/svg">
<path d="M11.625 19.125C11.625 20.5747 10.3658 21.75 8.8125 21.75C7.2592 21.75 6 20.5747 6 19.125" stroke="#F65E5E" stroke-width="1.5"/>
<path d="M11.25 5.25H19.125C19.9534 5.25 20.625 5.92157 20.625 6.75V15.375C20.625 16.2034 19.9534 16.875 19.125 16.875H11.25M4.875 18.75H7.5C8.32843 18.75 9 18.0784 9 17.25V4.875C9 4.04657 8.32843 3.375 7.5 3.375H4.875C4.04657 3.375 3.375 4.04657 3.375 4.875V17.25C3.375 18.0784 4.04657 18.75 4.875 18.75Z" stroke="#233751" stroke-width="1.5"/>
</svg>
