<svg width="24" height="24" viewBox="0 0 24 24" fill="none" xmlns="http://www.w3.org/2000/svg">
<path d="M21 8.26548C19.8181 7.07167 18.415 6.1247 16.8708 5.47861C15.3265 4.83253 13.6715 4.5 12 4.5C10.3285 4.5 8.67346 4.83253 7.12923 5.47862C5.58501 6.1247 4.1819 7.07168 3 8.26548M18.75 10.5382C17.8636 9.6428 16.8113 8.93257 15.6531 8.44801C14.4949 7.96345 13.2536 7.71405 12 7.71405C10.7464 7.71405 9.50511 7.96345 8.34694 8.44801C7.18878 8.93257 6.13644 9.6428 5.25002 10.5382M16.5 12.8108C15.9091 12.2139 15.2075 11.7404 14.4354 11.4174C13.6633 11.0944 12.8357 10.9281 12 10.9281C11.1643 10.9281 10.3367 11.0944 9.56462 11.4174C8.79251 11.7404 8.09095 12.2139 7.50001 12.8108" stroke="#233751" stroke-width="1.5" stroke-linecap="round"/>
<path d="M14.625 16.875C14.625 18.3247 13.4497 19.5 12 19.5C10.5503 19.5 9.375 18.3247 9.375 16.875C9.375 15.4253 10.5503 14.25 12 14.25C13.4497 14.25 14.625 15.4253 14.625 16.875Z" stroke="#32CD9F" stroke-width="1.5"/>
</svg>
