<svg width="24" height="24" viewBox="0 0 24 24" fill="none" xmlns="http://www.w3.org/2000/svg">
<path d="M7.5 14.625H16.5C17.3284 14.625 18 13.9534 18 13.125V10.875" stroke="#846CFE" stroke-width="1.5"/>
<path d="M6 14.625H4.875C4.04657 14.625 3.375 13.9534 3.375 13.125V4.875C3.375 4.04657 4.04657 3.375 4.875 3.375H16.5C17.3284 3.375 18 4.04657 18 4.875V9.375M7.5 20.625H19.125C19.9534 20.625 20.625 19.9534 20.625 19.125V10.875C20.625 10.0466 19.9534 9.375 19.125 9.375H7.5C6.67157 9.375 6 10.0466 6 10.875V19.125C6 19.9534 6.67157 20.625 7.5 20.625Z" stroke="#233751" stroke-width="1.5"/>
</svg>
