<svg width="24" height="24" viewBox="0 0 24 24" fill="none" xmlns="http://www.w3.org/2000/svg">
<path d="M20.564 16.125C21.157 16.125 21.75 15.4922 21.75 14.7115V11.575C21.75 10.6789 21.4353 9.81259 20.8631 9.13348L19.2079 7.16916C18.3819 6.18882 17.1786 5.625 15.9125 5.625H12.2843C11.1979 5.625 10.1509 6.04048 9.34932 6.78964L7.75779 8.27708C7.22112 8.77865 6.55286 9.10935 5.83494 9.22864L4.71702 9.35207C3.18248 9.60704 2.10788 11.039 2.26529 12.6192L2.4229 15.009C2.48604 15.6428 3.00849 16.125 3.63213 16.125" stroke="#233751" stroke-width="1.5"/>
<path d="M10.4088 15.9375C10.4088 17.4908 9.17 18.75 7.64189 18.75C6.11378 18.75 4.875 17.4908 4.875 15.9375C4.875 14.3842 6.11378 13.125 7.64189 13.125C9.17 13.125 10.4088 14.3842 10.4088 15.9375Z" stroke="#48A2F5" stroke-width="1.5"/>
<path d="M19.125 15.9375C19.125 17.4908 17.8862 18.75 16.3581 18.75C14.83 18.75 13.5912 17.4908 13.5912 15.9375C13.5912 14.3842 14.83 13.125 16.3581 13.125C17.8862 13.125 19.125 14.3842 19.125 15.9375Z" stroke="#48A2F5" stroke-width="1.5"/>
</svg>
