<svg width="24" height="24" viewBox="0 0 24 24" fill="none" xmlns="http://www.w3.org/2000/svg">
<path d="M6.75 10.125H5.25" stroke="#846CFE" stroke-width="1.5"/>
<path d="M9.75 10.125H8.25" stroke="#846CFE" stroke-width="1.5"/>
<path d="M12.75 10.125H11.25" stroke="#846CFE" stroke-width="1.5"/>
<path d="M15.75 10.125H14.25" stroke="#846CFE" stroke-width="1.5"/>
<path d="M18.75 10.125H17.25" stroke="#846CFE" stroke-width="1.5"/>
<path d="M9 13.875L9 12.375" stroke="#846CFE" stroke-width="1.5"/>
<path d="M9 16.875L9 15.375" stroke="#846CFE" stroke-width="1.5"/>
<path d="M5.625 6.75C5.21079 6.75 4.875 7.08579 4.875 7.5C4.875 7.91421 5.21079 8.25 5.625 8.25V6.75ZM6 8.25C6.41421 8.25 6.75 7.91421 6.75 7.5C6.75 7.08579 6.41421 6.75 6 6.75V8.25ZM4.875 5.625H19.125V4.125H4.875V5.625ZM19.875 6.375V17.625H21.375V6.375H19.875ZM19.125 18.375H4.875V19.875H19.125V18.375ZM4.125 17.625V6.375H2.625V17.625H4.125ZM4.875 18.375C4.46079 18.375 4.125 18.0392 4.125 17.625H2.625C2.625 18.8676 3.63236 19.875 4.875 19.875V18.375ZM19.875 17.625C19.875 18.0392 19.5392 18.375 19.125 18.375V19.875C20.3676 19.875 21.375 18.8676 21.375 17.625H19.875ZM19.125 5.625C19.5392 5.625 19.875 5.96079 19.875 6.375H21.375C21.375 5.13236 20.3676 4.125 19.125 4.125V5.625ZM4.875 4.125C3.63236 4.125 2.625 5.13236 2.625 6.375H4.125C4.125 5.96079 4.46079 5.625 4.875 5.625V4.125ZM5.625 8.25H6V6.75H5.625V8.25Z" fill="#233751"/>
</svg>
