<svg width="24" height="24" viewBox="0 0 24 24" fill="none" xmlns="http://www.w3.org/2000/svg">
<path d="M4.37109 11.7962L3.31043 12.8569C2.72465 13.4426 2.72465 14.3924 3.31043 14.9782L9.14406 20.8118C9.72985 21.3976 10.6796 21.3976 11.2654 20.8118L12.326 19.7512C12.9118 19.1654 12.9118 18.2156 12.326 17.6298L11.5305 16.8343C10.9448 16.2486 10.9448 15.2988 11.5305 14.713L14.4474 11.7962C15.0332 11.2104 15.9829 11.2104 16.5687 11.7962L17.3642 12.5917C17.95 13.1775 18.8997 13.1775 19.4855 12.5917L20.8113 11.2659C21.3971 10.6801 21.3971 9.73034 20.8113 9.14455L14.9777 3.31092C14.3919 2.72514 13.4422 2.72514 12.8564 3.31092L11.5305 4.63675C10.9448 5.22253 10.9448 6.17228 11.5305 6.75807L12.0609 7.2884C12.6467 7.87418 12.6467 8.82393 12.0609 9.40972L9.14406 12.3265C8.55828 12.9123 7.60853 12.9123 7.02274 12.3265L6.49241 11.7962C5.90663 11.2104 4.95688 11.2104 4.37109 11.7962Z" stroke="#233751" stroke-width="1.5"/>
<path d="M3.84134 17.6292L3.31101 18.1596C3.16456 18.306 3.16456 18.5434 3.31101 18.6899L4.902 20.2809C5.04844 20.4273 5.28588 20.4273 5.43233 20.2809L5.96266 19.7506M19.7512 5.96192L20.2815 5.43159C20.428 5.28515 20.428 5.04771 20.2815 4.90126L18.6905 3.31027C18.5441 3.16383 18.3067 3.16383 18.1602 3.31027L17.6299 3.8406" stroke="#F65E5E" stroke-width="1.5"/>
</svg>
