<svg width="24" height="24" viewBox="0 0 24 24" fill="none" xmlns="http://www.w3.org/2000/svg">
<path d="M4.5 10.5V9.375C4.5 8.54657 5.17157 7.875 6 7.875H9C9.82843 7.875 10.5 8.54657 10.5 9.375V10.5M13.125 10.5V9.375C13.125 8.54657 13.7966 7.875 14.625 7.875H17.625C18.4534 7.875 19.125 8.54657 19.125 9.375V10.5" stroke="#48A2F5" stroke-width="1.5"/>
<path d="M21 19.5V20.25C21.4142 20.25 21.75 19.9142 21.75 19.5H21ZM3 19.5H2.25C2.25 19.9142 2.58579 20.25 3 20.25V19.5ZM4.5 12.75H19.5V11.25H4.5V12.75ZM20.25 13.5V19.5H21.75V13.5H20.25ZM21 18.75H3V20.25H21V18.75ZM3.75 19.5V13.5H2.25V19.5H3.75ZM19.5 12.75C19.9142 12.75 20.25 13.0858 20.25 13.5H21.75C21.75 12.2574 20.7426 11.25 19.5 11.25V12.75ZM4.5 11.25C3.25736 11.25 2.25 12.2574 2.25 13.5H3.75C3.75 13.0858 4.08579 12.75 4.5 12.75V11.25ZM6 6.75V6.17308H4.5V6.75H6ZM18 6.17308V6.75H19.5V6.17308H18ZM5.25 6.17308C6 6.17308 6 6.17498 5.99999 6.17688C5.99999 6.17751 5.99997 6.17941 5.99996 6.18066C5.99994 6.18318 5.9999 6.18569 5.99985 6.18819C5.99974 6.19319 5.99959 6.19815 5.99939 6.20306C5.99898 6.21289 5.99838 6.22255 5.99758 6.23204C5.99599 6.25102 5.99364 6.26921 5.99063 6.28659C5.98457 6.32156 5.976 6.3522 5.96625 6.37844C5.94621 6.43239 5.92459 6.45873 5.92224 6.46145C5.92125 6.46259 6.01223 6.35895 6.36298 6.22405C7.07565 5.94995 8.65144 5.625 12 5.625V4.125C8.59856 4.125 6.79935 4.44909 5.82452 4.82403C5.33152 5.01364 5.00063 5.23452 4.7887 5.47905C4.68087 5.60347 4.60652 5.73122 4.56011 5.85616C4.53719 5.91789 4.52202 5.97642 4.51267 6.03041C4.50801 6.0573 4.50483 6.08277 4.50283 6.10667C4.50183 6.11861 4.50112 6.13013 4.50066 6.14121C4.50043 6.14675 4.50027 6.15218 4.50016 6.15749C4.50011 6.16015 4.50007 6.16277 4.50004 6.16537C4.50003 6.16667 4.50001 6.1686 4.50001 6.16925C4.5 6.17116 4.5 6.17308 5.25 6.17308ZM12 5.625C15.3486 5.625 16.9244 5.94995 17.637 6.22405C17.9878 6.35895 18.0788 6.46259 18.0778 6.46145C18.0754 6.45873 18.0538 6.43239 18.0337 6.37844C18.024 6.3522 18.0154 6.32156 18.0094 6.28659C18.0064 6.26921 18.004 6.25102 18.0024 6.23204C18.0016 6.22255 18.001 6.21289 18.0006 6.20306C18.0004 6.19815 18.0003 6.19319 18.0002 6.18819C18.0001 6.18569 18.0001 6.18318 18 6.18066C18 6.17941 18 6.17751 18 6.17688C18 6.17498 18 6.17308 18.75 6.17308C19.5 6.17308 19.5 6.17116 19.5 6.16925C19.5 6.1686 19.5 6.16667 19.5 6.16537C19.4999 6.16277 19.4999 6.16015 19.4998 6.15749C19.4997 6.15218 19.4996 6.14675 19.4993 6.14121C19.4989 6.13013 19.4982 6.11861 19.4972 6.10667C19.4952 6.08277 19.492 6.0573 19.4873 6.03041C19.478 5.97642 19.4628 5.91789 19.4399 5.85616C19.3935 5.73122 19.3191 5.60347 19.2113 5.47905C18.9994 5.23452 18.6685 5.01364 18.1755 4.82403C17.2006 4.44909 15.4014 4.125 12 4.125V5.625ZM18 6.17308C18 6.17308 18.75 6.17308 19.5 6.17308C19.5 6.17308 19.5 6.17308 18.75 6.17308C18 6.17308 18 6.17308 18 6.17308C18.75 6.17308 19.5 6.17308 19.5 6.17308H18ZM4.5 6.17308C4.5 6.17308 5.25 6.17308 6 6.17308C6 6.17308 6 6.17308 5.25 6.17308C4.5 6.17308 4.5 6.17308 4.5 6.17308C5.25 6.17308 6 6.17308 6 6.17308H4.5Z" fill="#233751"/>
</svg>
