<svg width="24" height="24" viewBox="0 0 24 24" fill="none" xmlns="http://www.w3.org/2000/svg">
<path d="M10.4016 19.0114L9.86877 19.5393V19.5393L10.4016 19.0114ZM4.44444 12.9978L4.97726 12.47L4.97724 12.4699L4.44444 12.9978ZM12.0004 6.54501L11.4676 7.07286C11.6084 7.21503 11.8002 7.29501 12.0004 7.29501C12.2005 7.29501 12.3923 7.21503 12.5332 7.07286L12.0004 6.54501ZM12.5812 5.95874L13.114 6.48659V6.48659L12.5812 5.95874ZM11.4188 5.95799L10.886 6.48584L11.4188 5.95799ZM19.5556 5.95874L20.0884 5.4309L19.5556 5.95874ZM4.44444 5.95799L3.91164 5.43014L3.91164 5.43014L4.44444 5.95799ZM13.5985 19.0115L13.0657 18.4837L13.5985 19.0115ZM20.2147 10.029C20.1617 10.4399 20.4517 10.8158 20.8625 10.8688C21.2733 10.9218 21.6493 10.6318 21.7023 10.221L20.2147 10.029ZM18.477 15.1528C18.7685 14.8586 18.7663 14.3837 18.4721 14.0922C18.1778 13.8007 17.7029 13.8029 17.4114 14.0972L18.477 15.1528ZM10.9344 18.4836L4.97726 12.47L3.91161 13.5256L9.86877 19.5393L10.9344 18.4836ZM12.5332 7.07286L13.114 6.48659L12.0484 5.43089L11.4676 6.01717L12.5332 7.07286ZM10.886 6.48584L11.4676 7.07286L12.5332 6.01717L11.9516 5.43014L10.886 6.48584ZM20.0884 5.4309C17.869 3.19071 14.2678 3.1907 12.0484 5.43089L13.114 6.48659C14.7465 4.8388 17.3903 4.83881 19.0228 6.48659L20.0884 5.4309ZM4.97724 6.48584C6.60971 4.83805 9.25354 4.83805 10.886 6.48584L11.9516 5.43014C9.73224 3.18995 6.13101 3.18995 3.91164 5.43014L4.97724 6.48584ZM3.91164 5.43014C1.69612 7.66645 1.69612 11.2893 3.91164 13.5256L4.97724 12.4699C3.34092 10.8183 3.34092 8.13751 4.97724 6.48584L3.91164 5.43014ZM9.86877 19.5393C11.0425 20.7242 12.9574 20.7242 14.1313 19.5394L13.0657 18.4837C12.4788 19.0761 11.5213 19.0761 10.9344 18.4836L9.86877 19.5393ZM21.7023 10.221C21.9214 8.52295 21.385 6.73971 20.0884 5.4309L19.0228 6.48659C19.9785 7.45128 20.3774 8.76755 20.2147 10.029L21.7023 10.221ZM17.4114 14.0972L13.0657 18.4837L14.1313 19.5394L18.477 15.1528L17.4114 14.0972Z" fill="#233751"/>
<path d="M10.9662 12.6184L11.6685 12.355L11.6685 12.355L10.9662 12.6184ZM11.5567 14.1929L10.8544 14.4562L11.5567 14.1929ZM12.2739 14.1426L11.5417 13.9799L12.2739 14.1426ZM13.1554 10.1757L12.4233 10.013V10.013L13.1554 10.1757ZM13.8853 10.1661L13.1577 10.348V10.348L13.8853 10.1661ZM14.7541 13.6416L14.0265 13.8235V13.8235L14.7541 13.6416ZM15.4534 13.7183L14.7825 13.3829L15.4534 13.7183ZM16.0214 12.5823L15.3505 12.2469L15.3505 12.2469L16.0214 12.5823ZM21 13.125C21.4142 13.125 21.75 12.7892 21.75 12.375C21.75 11.9608 21.4142 11.625 21 11.625V13.125ZM7.875 13.125H10.6151V11.625H7.875V13.125ZM10.264 12.8817L10.8544 14.4562L12.2589 13.9295L11.6685 12.355L10.264 12.8817ZM13.006 14.3053L13.8875 10.3384L12.4233 10.013L11.5417 13.9799L13.006 14.3053ZM13.1577 10.348L14.0265 13.8235L15.4817 13.4597L14.6129 9.98423L13.1577 10.348ZM16.1242 14.0537L16.6922 12.9177L15.3505 12.2469L14.7825 13.3829L16.1242 14.0537ZM16.3568 13.125H21V11.625H16.3568V13.125ZM16.6922 12.9177C16.6286 13.0448 16.4988 13.125 16.3568 13.125V11.625C15.9306 11.625 15.5411 11.8658 15.3505 12.2469L16.6922 12.9177ZM14.0265 13.8235C14.2798 14.8368 15.6571 14.9879 16.1242 14.0537L14.7825 13.3829C14.9382 13.0715 15.3973 13.1219 15.4817 13.4597L14.0265 13.8235ZM13.8875 10.3384C13.8017 10.7247 13.2536 10.7319 13.1577 10.348L14.6129 9.98423C14.325 8.83255 12.6808 8.85418 12.4233 10.013L13.8875 10.3384ZM10.8544 14.4562C11.2474 15.5042 12.7632 15.3978 13.006 14.3053L11.5417 13.9799C11.6227 13.6157 12.1279 13.5802 12.2589 13.9295L10.8544 14.4562ZM10.6151 13.125C10.4588 13.125 10.3189 13.0281 10.264 12.8817L11.6685 12.355C11.5038 11.9159 11.0841 11.625 10.6151 11.625V13.125Z" fill="#F65E5E"/>
</svg>
