<svg width="148" height="42" viewBox="0 0 148 42" fill="none" xmlns="http://www.w3.org/2000/svg">
<rect width="148" height="42" rx="4" fill="#233751"/>
<path d="M33.009 20.764C32.9764 17.2471 35.9742 15.5361 36.1113 15.4565C34.4135 13.0526 31.7821 12.7242 30.8573 12.698C28.6472 12.4721 26.5034 13.9823 25.3776 13.9823C24.2293 13.9823 22.4956 12.7198 20.627 12.7569C18.2225 12.7929 15.9731 14.1449 14.7394 16.2443C12.1933 20.525 14.0922 26.8156 16.5315 30.2757C17.7517 31.9703 19.1776 33.8624 21.0439 33.7959C22.8697 33.7228 23.5517 32.6654 25.7551 32.6654C27.9382 32.6654 28.5787 33.7959 30.4821 33.7533C32.4416 33.7228 33.6753 32.0511 34.8529 30.3412C36.263 28.3989 36.8293 26.4861 36.8517 26.3879C36.8057 26.3726 33.0461 24.9792 33.009 20.764Z" fill="white"/>
<path d="M29.4135 10.4218C30.3955 9.22913 31.0675 7.60655 30.8809 5.95996C29.4596 6.02107 27.6821 6.91474 26.6585 8.08121C25.7529 9.1091 24.9439 10.7939 25.1529 12.3783C26.7495 12.4939 28.3888 11.5959 29.4135 10.4218Z" fill="white"/>
<path d="M59.4327 33.5526H56.881L55.4832 29.2872H50.6248L49.2933 33.5526H46.8091L51.6226 19.0312H54.5956L59.4327 33.5526ZM55.0619 27.4977L53.7978 23.7059C53.6641 23.3185 53.4136 22.4063 53.0439 20.9703H52.999C52.8518 21.5879 52.6147 22.5001 52.2889 23.7059L51.0473 27.4977H55.0619Z" fill="white"/>
<path d="M71.8114 28.1889C71.8114 29.9697 71.3159 31.3773 70.3249 32.4106C69.4372 33.3305 68.335 33.7899 67.0192 33.7899C65.599 33.7899 64.5788 33.2945 63.9574 32.3037H63.9125V37.8196H61.517V26.5292C61.517 25.4096 61.4866 24.2606 61.4282 23.0821H63.535L63.6687 24.7418H63.7136C64.5125 23.4913 65.7249 22.8672 67.3518 22.8672C68.6237 22.8672 69.6855 23.3549 70.535 24.3315C71.3866 25.3092 71.8114 26.5946 71.8114 28.1889ZM69.3709 28.274C69.3709 27.2548 69.135 26.4146 68.6608 25.7533C68.1428 25.0637 67.4473 24.7189 66.5754 24.7189C65.9844 24.7189 65.4473 24.911 64.9675 25.2896C64.4866 25.6715 64.172 26.1702 64.0248 26.7878C63.9507 27.0759 63.9136 27.3115 63.9136 27.497V29.2429C63.9136 30.0046 64.1541 30.6473 64.635 31.1721C65.1159 31.697 65.7406 31.9589 66.5091 31.9589C67.4114 31.9589 68.1136 31.6206 68.6159 30.9463C69.1192 30.2708 69.3709 29.3804 69.3709 28.274Z" fill="white"/>
<path d="M84.2126 28.1889C84.2126 29.9697 83.7171 31.3773 82.725 32.4106C81.8384 33.3305 80.7362 33.7899 79.4205 33.7899C78.0002 33.7899 76.98 33.2945 76.3598 32.3037H76.3148V37.8196H73.9193V26.5292C73.9193 25.4096 73.889 24.2606 73.8306 23.0821H75.9373L76.071 24.7418H76.116C76.9137 23.4913 78.1261 22.8672 79.7542 22.8672C81.025 22.8672 82.0868 23.3549 82.9384 24.3315C83.7868 25.3092 84.2126 26.5946 84.2126 28.1889ZM81.7721 28.274C81.7721 27.2548 81.5351 26.4146 81.0609 25.7533C80.5429 25.0637 79.8497 24.7189 78.9766 24.7189C78.3845 24.7189 77.8485 24.911 77.3676 25.2896C76.8867 25.6715 76.5733 26.1702 76.4261 26.7878C76.353 27.0759 76.3148 27.3115 76.3148 27.497V29.2429C76.3148 30.0046 76.5553 30.6473 77.0339 31.1721C77.5148 31.6959 78.1396 31.9589 78.9103 31.9589C79.8126 31.9589 80.5148 31.6206 81.0171 30.9463C81.5205 30.2708 81.7721 29.3804 81.7721 28.274Z" fill="white"/>
<path d="M98.0777 29.4802C98.0777 30.7155 97.6361 31.7204 96.7496 32.4963C95.7754 33.3441 94.4193 33.7675 92.6766 33.7675C91.0676 33.7675 89.7777 33.4663 88.8013 32.8629L89.3563 30.9239C90.408 31.5415 91.5619 31.8514 92.8193 31.8514C93.7215 31.8514 94.4237 31.6528 94.9282 31.2578C95.4305 30.8628 95.681 30.3325 95.681 29.6712C95.681 29.082 95.4743 28.5855 95.0597 28.1828C94.6473 27.7802 93.9586 27.4059 92.9968 27.06C90.3788 26.1118 89.0709 24.7227 89.0709 22.8961C89.0709 21.7023 89.5294 20.7236 90.4473 19.9619C91.3619 19.1992 92.5822 18.8184 94.108 18.8184C95.4687 18.8184 96.599 19.0486 97.5013 19.508L96.9024 21.4044C96.0597 20.9592 95.1069 20.7366 94.0406 20.7366C93.1979 20.7366 92.5395 20.9385 92.0676 21.3401C91.6687 21.6991 91.4687 22.1366 91.4687 22.6549C91.4687 23.2289 91.6968 23.7036 92.1552 24.0767C92.5541 24.4216 93.2788 24.7947 94.3305 25.1974C95.617 25.7004 96.5619 26.2886 97.1698 26.9629C97.7754 27.6351 98.0777 28.4764 98.0777 29.4802Z" fill="white"/>
<path d="M105.998 24.8275H103.357V29.9113C103.357 31.2044 103.823 31.8504 104.755 31.8504C105.183 31.8504 105.538 31.8143 105.819 31.7423L105.886 33.5089C105.414 33.6803 104.792 33.7665 104.023 33.7665C103.077 33.7665 102.337 33.486 101.804 32.9263C101.272 32.3654 101.005 31.4248 101.005 30.1034V24.8254H99.4316V23.0795H101.005V21.1623L103.357 20.4727V23.0795H105.998V24.8275Z" fill="white"/>
<path d="M117.911 28.2313C117.911 29.8408 117.437 31.1622 116.491 32.1955C115.499 33.2594 114.182 33.7897 112.54 33.7897C110.958 33.7897 109.699 33.2802 108.76 32.261C107.82 31.2419 107.351 29.9554 107.351 28.4048C107.351 26.7822 107.834 25.4532 108.803 24.4198C109.771 23.3854 111.076 22.8682 112.718 22.8682C114.3 22.8682 115.573 23.3777 116.534 24.398C117.453 25.3877 117.911 26.6655 117.911 28.2313ZM115.426 28.3066C115.426 27.3409 115.214 26.5127 114.783 25.822C114.281 24.9861 113.563 24.5693 112.633 24.5693C111.67 24.5693 110.938 24.9872 110.436 25.822C110.006 26.5138 109.793 27.3551 109.793 28.3502C109.793 29.3159 110.006 30.1441 110.436 30.8338C110.954 31.6696 111.678 32.0864 112.611 32.0864C113.526 32.0864 114.244 31.6609 114.762 30.8119C115.203 30.1081 115.426 29.2712 115.426 28.3066Z" fill="white"/>
<path d="M125.698 25.1281C125.461 25.0855 125.208 25.0637 124.943 25.0637C124.1 25.0637 123.448 25.3725 122.99 25.9912C122.591 26.5368 122.391 27.2264 122.391 28.059V33.5531H119.997L120.019 26.3797C120.019 25.1728 119.989 24.074 119.929 23.0832H122.016L122.103 25.0866H122.17C122.422 24.3981 122.821 23.8438 123.367 23.4281C123.901 23.0538 124.478 22.8672 125.099 22.8672C125.32 22.8672 125.52 22.8825 125.698 22.9097V25.1281Z" fill="white"/>
<path d="M136.412 27.8223C136.412 28.2392 136.384 28.5905 136.324 28.8775H129.137C129.166 29.9119 129.513 30.703 130.18 31.2486C130.786 31.7364 131.569 31.9808 132.531 31.9808C133.595 31.9808 134.566 31.816 135.439 31.4854L135.814 33.1003C134.794 33.5325 133.589 33.7474 132.199 33.7474C130.527 33.7474 129.215 33.2695 128.26 32.3147C127.307 31.3599 126.83 30.0778 126.83 28.4694C126.83 26.8905 127.273 25.5756 128.162 24.527C129.093 23.4074 130.35 22.8477 131.932 22.8477C133.486 22.8477 134.662 23.4074 135.461 24.527C136.094 25.4163 136.412 26.5162 136.412 27.8223ZM134.127 27.2189C134.143 26.5293 133.987 25.9335 133.662 25.4305C133.248 24.7834 132.61 24.4604 131.753 24.4604C130.97 24.4604 130.333 24.7758 129.846 25.4086C129.448 25.9117 129.21 26.5151 129.137 27.2178H134.127V27.2189Z" fill="white"/>
<path d="M54.2697 10.0989C54.2697 11.3832 53.873 12.3499 53.0809 12.9992C52.3472 13.5983 51.3045 13.8983 49.9539 13.8983C49.2843 13.8983 48.7112 13.87 48.2314 13.8132V6.79586C48.8573 6.69765 49.5314 6.64746 50.2595 6.64746C51.5461 6.64746 52.5157 6.91916 53.1697 7.46257C53.9022 8.0769 54.2697 8.9553 54.2697 10.0989ZM53.0281 10.1305C53.0281 9.29793 52.8011 8.65959 52.3472 8.21439C51.8932 7.77028 51.2303 7.54768 50.3573 7.54768C49.9865 7.54768 49.6708 7.57169 49.409 7.62188V12.9566C49.5539 12.9785 49.8191 12.9883 50.2045 12.9883C51.1056 12.9883 51.8011 12.745 52.291 12.2583C52.7809 11.7716 53.0281 11.0624 53.0281 10.1305Z" fill="white"/>
<path d="M60.8527 11.221C60.8527 12.0121 60.6201 12.6603 60.1549 13.1688C59.6673 13.6914 59.0212 13.9522 58.2145 13.9522C57.437 13.9522 56.8179 13.7023 56.3561 13.2004C55.8954 12.6996 55.665 12.0678 55.665 11.3061C55.665 10.5096 55.9021 9.85595 56.3785 9.34856C56.8549 8.84116 57.4954 8.58691 58.3021 8.58691C59.0796 8.58691 59.7044 8.83679 60.1774 9.33764C60.6268 9.82431 60.8527 10.4528 60.8527 11.221ZM59.6313 11.2581C59.6313 10.7835 59.5257 10.3764 59.3156 10.0371C59.0684 9.6268 58.7167 9.42166 58.2594 9.42166C57.7864 9.42166 57.4268 9.6268 57.1796 10.0371C56.9684 10.3764 56.8639 10.79 56.8639 11.2788C56.8639 11.7535 56.9695 12.1605 57.1796 12.4999C57.4347 12.9102 57.7898 13.1153 58.2482 13.1153C58.6976 13.1153 59.0504 12.9069 59.3044 12.489C59.5223 12.1431 59.6313 11.7328 59.6313 11.2581Z" fill="white"/>
<path d="M69.6795 8.69141L68.0222 13.8352H66.9436L66.2571 11.6016C66.0829 11.044 65.9413 10.4897 65.8312 9.93971H65.8099C65.7076 10.5049 65.566 11.0582 65.384 11.6016L64.6548 13.8352H63.5638L62.0054 8.69141H63.2155L63.8144 11.1367C63.9593 11.7151 64.0784 12.2661 64.1739 12.7877H64.1953C64.2829 12.3578 64.4278 11.81 64.6323 11.1476L65.384 8.6925H66.3436L67.0638 11.0953C67.238 11.6812 67.3795 12.2454 67.4885 12.7888H67.5211C67.6009 12.2596 67.7211 11.6954 67.8806 11.0953L68.5233 8.6925H69.6795V8.69141Z" fill="white"/>
<path d="M75.7843 13.8358H74.6068V10.8896C74.6068 9.98178 74.2517 9.52785 73.5393 9.52785C73.1899 9.52785 72.9079 9.65225 72.6888 9.90213C72.4719 10.152 72.3618 10.4466 72.3618 10.7838V13.8347H71.1843V10.1618C71.1843 9.71008 71.1697 9.22014 71.1416 8.68983H72.1764L72.2315 9.49403H72.2641C72.4011 9.24415 72.6056 9.03791 72.8742 8.87315C73.1933 8.6811 73.5506 8.58398 73.9416 8.58398C74.436 8.58398 74.8472 8.73893 75.1742 9.04992C75.5809 9.43074 75.7843 9.99924 75.7843 10.7543V13.8358Z" fill="white"/>
<path d="M79.0314 13.8351H77.855V6.33105H79.0314V13.8351Z" fill="white"/>
<path d="M85.964 11.221C85.964 12.0121 85.7314 12.6603 85.2663 13.1688C84.7786 13.6914 84.1314 13.9522 83.3258 13.9522C82.5472 13.9522 81.9281 13.7023 81.4674 13.2004C81.0067 12.6996 80.7764 12.0678 80.7764 11.3061C80.7764 10.5096 81.0134 9.85595 81.4899 9.34856C81.9663 8.84116 82.6067 8.58691 83.4123 8.58691C84.191 8.58691 84.8146 8.83679 85.2887 9.33764C85.7382 9.82431 85.964 10.4528 85.964 11.221ZM84.7415 11.2581C84.7415 10.7835 84.6359 10.3764 84.4258 10.0371C84.1797 9.6268 83.8269 9.42166 83.3707 9.42166C82.8966 9.42166 82.537 9.6268 82.291 10.0371C82.0797 10.3764 81.9752 10.79 81.9752 11.2788C81.9752 11.7535 82.0809 12.1605 82.291 12.4999C82.546 12.9102 82.9011 13.1153 83.3595 13.1153C83.809 13.1153 84.1606 12.9069 84.4146 12.489C84.6337 12.1431 84.7415 11.7328 84.7415 11.2581Z" fill="white"/>
<path d="M91.6628 13.8355H90.6055L90.5178 13.243H90.4852C90.1234 13.7154 89.6077 13.9522 88.938 13.9522C88.438 13.9522 88.0336 13.7962 87.7291 13.4863C87.4527 13.2048 87.3145 12.8545 87.3145 12.4388C87.3145 11.8102 87.5841 11.3312 88.1268 10.9995C88.6684 10.6678 89.4302 10.5052 90.4111 10.5128V10.4168C90.4111 9.7392 90.0448 9.40093 89.3111 9.40093C88.7886 9.40093 88.3279 9.5286 87.9302 9.78175L87.6909 9.03102C88.183 8.73531 88.7909 8.58691 89.5077 8.58691C90.892 8.58691 91.5864 9.29618 91.5864 10.7147V12.609C91.5864 13.1229 91.6122 13.5321 91.6628 13.8355ZM90.4403 12.0678V11.2745C89.1414 11.2527 88.492 11.5986 88.492 12.3111C88.492 12.5795 88.5661 12.7803 88.7178 12.9145C88.8695 13.0487 89.0628 13.1153 89.2931 13.1153C89.5515 13.1153 89.7931 13.0356 90.0133 12.8774C90.2347 12.7181 90.3706 12.5162 90.4212 12.2685C90.4335 12.2129 90.4403 12.1452 90.4403 12.0678Z" fill="white"/>
<path d="M98.354 13.8351H97.3091L97.254 13.0091H97.2214C96.8877 13.6376 96.3192 13.9518 95.5203 13.9518C94.8821 13.9518 94.3507 13.7085 93.9293 13.2218C93.508 12.7352 93.2979 12.1034 93.2979 11.3276C93.2979 10.495 93.5259 9.82064 93.9844 9.3056C94.4282 8.82548 94.972 8.58542 95.6192 8.58542C96.3304 8.58542 96.8282 8.81785 97.1113 9.28378H97.1338V6.33105H98.3124V12.4493C98.3124 12.9501 98.3259 13.4117 98.354 13.8351ZM97.1338 11.6658V10.8082C97.1338 10.6598 97.1226 10.5397 97.1012 10.4481C97.0349 10.1731 96.8922 9.94176 96.6754 9.75517C96.4563 9.56858 96.1922 9.47473 95.8877 9.47473C95.4484 9.47473 95.1046 9.64387 94.8518 9.98322C94.6012 10.3226 94.4743 10.7558 94.4743 11.285C94.4743 11.7935 94.5945 12.2059 94.836 12.5235C95.0911 12.8617 95.4349 13.0309 95.8653 13.0309C96.2518 13.0309 96.5608 12.8901 96.7956 12.6075C97.0226 12.3467 97.1338 12.0325 97.1338 11.6658Z" fill="white"/>
<path d="M108.424 11.221C108.424 12.0121 108.192 12.6603 107.727 13.1688C107.239 13.6914 106.594 13.9522 105.786 13.9522C105.01 13.9522 104.391 13.7023 103.928 13.2004C103.467 12.6996 103.237 12.0678 103.237 11.3061C103.237 10.5096 103.474 9.85595 103.95 9.34856C104.427 8.84116 105.067 8.58691 105.875 8.58691C106.651 8.58691 107.277 8.83679 107.749 9.33764C108.199 9.82431 108.424 10.4528 108.424 11.221ZM107.204 11.2581C107.204 10.7835 107.099 10.3764 106.888 10.0371C106.64 9.6268 106.29 9.42166 105.831 9.42166C105.359 9.42166 105 9.6268 104.751 10.0371C104.54 10.3764 104.436 10.79 104.436 11.2788C104.436 11.7535 104.541 12.1605 104.751 12.4999C105.006 12.9102 105.362 13.1153 105.82 13.1153C106.269 13.1153 106.623 12.9069 106.877 12.489C107.094 12.1431 107.204 11.7328 107.204 11.2581Z" fill="white"/>
<path d="M114.756 13.8358H113.58V10.8896C113.58 9.98178 113.225 9.52785 112.511 9.52785C112.162 9.52785 111.88 9.65225 111.662 9.90213C111.444 10.152 111.335 10.4466 111.335 10.7838V13.8347H110.156V10.1618C110.156 9.71008 110.143 9.22014 110.115 8.68983H111.148L111.204 9.49403H111.236C111.374 9.24415 111.579 9.03791 111.846 8.87315C112.166 8.6811 112.523 8.58398 112.915 8.58398C113.408 8.58398 113.819 8.73893 114.146 9.04992C114.554 9.43074 114.756 9.99924 114.756 10.7543V13.8358Z" fill="white"/>
<path d="M122.681 9.54777H121.384V12.0466C121.384 12.6816 121.615 12.9992 122.071 12.9992C122.282 12.9992 122.457 12.9817 122.596 12.9457L122.626 13.8132C122.393 13.8983 122.088 13.9408 121.711 13.9408C121.246 13.9408 120.884 13.8034 120.622 13.5284C120.36 13.2534 120.229 12.7907 120.229 12.1415V9.54777H119.455V8.6912H120.229V7.74842L121.383 7.41016V8.69011H122.68V9.54777H122.681Z" fill="white"/>
<path d="M128.914 13.8351H127.736V10.9107C127.736 9.98868 127.381 9.52711 126.67 9.52711C126.123 9.52711 125.75 9.79445 125.546 10.3291C125.511 10.4415 125.491 10.579 125.491 10.7405V13.834H124.314V6.33105H125.491V9.43109H125.513C125.884 8.86695 126.416 8.58543 127.104 8.58543C127.592 8.58543 127.995 8.74037 128.316 9.05136C128.714 9.43873 128.914 10.0149 128.914 10.7765V13.8351Z" fill="white"/>
<path d="M135.345 11.0203C135.345 11.2254 135.329 11.3978 135.301 11.5386H131.77C131.786 12.0471 131.954 12.4345 132.281 12.7029C132.58 12.9429 132.965 13.063 133.437 13.063C133.96 13.063 134.436 12.9822 134.865 12.8196L135.05 13.614C134.547 13.8257 133.956 13.9316 133.272 13.9316C132.452 13.9316 131.806 13.6969 131.338 13.2277C130.869 12.7585 130.636 12.1289 130.636 11.3389C130.636 10.5631 130.853 9.91711 131.29 9.40208C131.746 8.85212 132.363 8.57715 133.142 8.57715C133.904 8.57715 134.482 8.85212 134.873 9.40208C135.189 9.83855 135.345 10.3787 135.345 11.0203ZM134.222 10.7246C134.231 10.3852 134.153 10.0928 133.994 9.84619C133.789 9.52865 133.478 9.36934 133.056 9.36934C132.672 9.36934 132.359 9.52429 132.119 9.83527C131.924 10.083 131.808 10.3787 131.77 10.7246H134.222Z" fill="white"/>
</svg>
