<svg width="76" height="32" viewBox="0 0 76 32" fill="none" xmlns="http://www.w3.org/2000/svg">
<g opacity="0.4">
<path d="M3.9524 0.0788014C6.29424 0.00477583 8.63757 0.0756176 10.9802 0.0668618C13.7553 0.0835773 16.5319 0.0668618 19.3064 0.0565142C19.5831 0.0772095 19.8605 0.0780055 20.1372 0.0549222C20.6078 0.105865 21.0799 0.0628819 21.552 0.0724336C23.591 0.0803934 25.6308 0.0867612 27.6699 0.0453705C40.0734 0.031043 52.4769 0.0453705 64.8797 0.0366148C66.2975 0.0031839 67.716 0.0127356 69.1353 0C70.1064 0.0183074 71.0796 -0.0262672 72.0507 0.0358188C72.5332 0.060494 72.9874 0.250732 73.461 0.334309C74.2366 0.529323 74.8176 1.17565 75.192 1.89681C75.7536 2.75725 76.0094 3.81431 75.9997 4.85544C75.9893 9.74909 76.0132 14.6427 75.9878 19.5364C76.002 20.1612 76.0072 20.7861 75.9744 21.4101C76.0169 21.9697 75.9744 22.53 75.9803 23.0912C76.0117 24.2207 75.9639 25.3502 75.9789 26.4805C75.9513 27.1937 76.0318 27.9299 75.8013 28.6161C75.6559 29.2608 75.3293 29.8275 75.0018 30.3815C74.6163 30.9817 74.0763 31.5102 73.3909 31.667C72.8882 31.7498 72.4094 31.9743 71.8941 31.9615C71.2497 32.0252 70.6031 31.9751 69.9579 31.9974C65.8195 31.9926 61.681 32.0101 57.5432 31.987C53.6255 32.0133 49.7078 31.9902 45.79 31.9982C31.9418 31.9966 18.0937 31.9998 4.24699 31.9998C3.10069 31.9966 1.9499 31.4911 1.16979 30.5861C0.843123 30.2327 0.597006 29.8045 0.38818 29.3635C0.189049 28.7776 -0.00859024 28.1735 0.000359464 27.5407C-0.00113215 22.1528 0.00259691 16.7656 0.00110529 11.3777C0.025717 10.6844 0.00707177 9.99107 0.0204963 9.29777C-0.0272354 8.17704 0.0451079 7.05551 0.0055801 5.93478C0.0413789 5.23273 -0.0376768 4.52273 0.0779235 3.82625C0.168912 3.43702 0.278546 3.05017 0.421741 2.67925C0.868481 1.67791 1.66277 0.849304 2.62337 0.419478C3.0537 0.261876 3.49447 0.105865 3.9524 0.0788014ZM0.9095 2.79069C0.638026 3.41234 0.485135 4.09131 0.484389 4.77823C0.487372 12.4482 0.482152 20.1182 0.487372 27.7875C0.585819 28.589 0.837902 29.3985 1.35027 30.0106C1.9678 30.8623 2.93735 31.3399 3.92182 31.476C6.18162 31.4983 8.44291 31.4593 10.7035 31.4951C10.9637 31.4728 11.2248 31.4816 11.4858 31.4808C16.1464 31.4816 20.8069 31.48 25.4675 31.4816C25.5078 30.1778 25.4466 28.8771 25.4936 27.5741C25.4988 27.4412 25.5003 27.3075 25.4831 27.1761C25.5003 26.4566 25.507 25.7354 25.4884 25.0151C25.513 24.6497 25.5122 24.282 25.4928 23.9158C25.5234 23.5887 25.4884 23.26 25.5048 22.9312C25.51 15.4873 25.507 8.04252 25.5063 0.597777C24.5762 0.578673 23.644 0.626432 22.7147 0.576285C22.0047 0.626432 21.2917 0.579469 20.5809 0.596185C15.0873 0.596185 9.59444 0.597777 4.10081 0.596185C2.77626 0.665434 1.49943 1.51394 0.9095 2.79069ZM34.855 10.9383C34.2277 11.7502 34.0995 12.9163 34.3933 13.9017C34.5865 14.5393 35.0541 15.098 35.6634 15.2938C36.1974 15.469 36.7948 15.4475 37.3102 15.2111C37.8307 14.9564 38.1708 14.3984 38.2827 13.8117C37.9918 13.7059 37.6958 13.6223 37.4056 13.5156C37.3199 13.791 37.2319 14.0824 37.0215 14.2806C36.7023 14.669 36.1191 14.6324 35.7373 14.3737C35.4218 14.1707 35.3047 13.7727 35.2465 13.4074C35.1749 12.8001 35.1682 12.1314 35.4829 11.595C35.732 11.1874 36.2355 11.0179 36.6651 11.1556C37.0201 11.2376 37.258 11.5806 37.3818 11.9245C37.6861 11.8743 37.9874 11.8051 38.2827 11.7104C38.1723 11.349 38.0314 10.9741 37.7405 10.7353C36.9142 10.0356 35.5821 10.1113 34.855 10.9383ZM39.3574 11.2638C38.939 12.0383 38.86 13.0054 39.1068 13.8555C39.2187 14.2806 39.4506 14.673 39.7781 14.9452C40.3247 15.4355 41.1123 15.5008 41.7806 15.3114C42.4227 15.1219 42.8642 14.5011 43.0193 13.8308C42.727 13.7162 42.4309 13.6096 42.1288 13.53C42.005 13.8595 41.8887 14.2432 41.5814 14.4294C41.0773 14.7422 40.3575 14.5026 40.1107 13.9367C39.9675 13.5849 39.9235 13.1941 39.9362 12.8128C39.9168 12.3782 40.0003 11.9301 40.2166 11.5575C40.5455 11.0879 41.2309 10.9614 41.6836 11.2973C41.9058 11.4405 42.0058 11.7104 42.1124 11.9492C42.41 11.8624 42.7121 11.7916 43.0111 11.7096C42.8858 11.2845 42.68 10.8603 42.3153 10.6167C41.3838 9.97356 39.9414 10.2139 39.3574 11.2638ZM31.3362 10.3477C30.9469 11.2925 30.6262 12.2691 30.266 13.2275C30.0281 13.9295 29.738 14.6117 29.5254 15.3233C29.8439 15.3233 30.1616 15.3193 30.4801 15.3273C30.633 14.9635 30.7344 14.5791 30.8694 14.2081C31.4951 14.2081 32.1216 14.2089 32.7473 14.2081C32.886 14.5791 33.0091 14.9579 33.1612 15.3233C33.4887 15.3209 33.8161 15.3265 34.1442 15.3169C33.5453 13.6541 32.9196 12.0017 32.2991 10.3469C31.9784 10.3477 31.6569 10.3477 31.3362 10.3477ZM43.8621 10.3556C43.8427 12.0113 43.8599 13.6677 43.8532 15.3233C44.1567 15.3217 44.461 15.3233 44.766 15.3217C44.81 14.6332 44.7757 13.9423 44.7854 13.2522C45.0942 13.2474 45.4596 13.2076 45.6893 13.4766C46.1696 14.037 46.4859 14.7343 46.9341 15.3177C47.2846 15.3321 47.6359 15.3209 47.9872 15.3177C47.5494 14.5385 47.1795 13.643 46.4351 13.1383C46.7364 13.054 47.0594 12.9712 47.2861 12.7268C47.8358 12.1776 47.7619 11.1142 47.172 10.6302C46.8401 10.3723 46.4098 10.3636 46.016 10.3469C45.2978 10.3532 44.5796 10.3373 43.8621 10.3556ZM48.551 10.5777C48.5689 12.1569 48.5234 13.7393 48.5734 15.3185C49.7473 15.3289 50.9212 15.3185 52.0958 15.3233C52.0943 15.0582 52.0943 14.7932 52.0958 14.5289C51.2262 14.4764 50.3499 14.5838 49.4825 14.4756C49.4915 14.0275 49.4713 13.5785 49.4967 13.1312C50.2761 13.136 51.0554 13.1336 51.8348 13.1328C51.834 12.859 51.8333 12.5851 51.8355 12.3113C51.0524 12.2795 50.2679 12.3066 49.4848 12.2978C49.4848 11.9261 49.4848 11.5552 49.4848 11.1834C50.3111 11.1787 51.1375 11.193 51.9638 11.1779C51.9765 11.1651 52.0026 11.1397 52.0153 11.1269C52.0302 10.8674 52.0168 10.6079 52.0205 10.3485C50.9115 10.3493 49.8025 10.3437 48.6935 10.3501C48.5674 10.3302 48.5301 10.4734 48.551 10.5777ZM52.958 10.3477C52.9274 10.5562 52.908 10.7671 52.914 10.9797C52.9214 12.4084 52.9058 13.8372 52.9214 15.266C52.9341 15.2787 52.9595 15.3042 52.9722 15.3169C53.6143 15.3328 54.2572 15.3169 54.8993 15.3233C55.4863 15.3233 56.1075 15.067 56.429 14.5178C56.8146 13.8659 56.8742 13.0516 56.7847 12.3034C56.7169 11.6929 56.4819 11.0521 55.9957 10.6875C55.6824 10.4344 55.2782 10.3692 54.8963 10.3485C54.2497 10.3461 53.6039 10.3485 52.958 10.3477ZM57.5753 10.3493C57.5783 12.0073 57.5745 13.6653 57.5775 15.3233C57.8803 15.3217 58.1839 15.3233 58.4874 15.3217C58.5314 14.8322 58.4993 14.3395 58.509 13.8484C58.5008 12.6815 58.5262 11.5138 58.4964 10.3477C58.1891 10.3477 57.8818 10.3469 57.5753 10.3493ZM59.1057 10.3485C59.134 10.6191 59.0423 10.9359 59.1542 11.1771C59.5972 11.1898 60.0409 11.1699 60.4854 11.1842C60.4847 12.5597 60.4869 13.9343 60.4839 15.3098C60.7808 15.3313 61.0783 15.3201 61.3759 15.3241C61.367 14.8998 61.4513 14.4772 61.3961 14.0545C61.3916 13.0978 61.4244 12.141 61.4184 11.1834C61.86 11.1651 62.3089 11.2256 62.7467 11.1452C62.8206 10.8897 62.7982 10.6191 62.7885 10.3556C61.5609 10.3381 60.3333 10.3516 59.1057 10.3485ZM63.4306 10.3485C63.4321 12.0073 63.4321 13.6653 63.4306 15.3233C64.5807 15.3169 65.7307 15.3321 66.8807 15.3169C66.8934 15.3042 66.9188 15.2787 66.9314 15.2668C66.9464 15.0073 66.9329 14.747 66.9367 14.4875C66.0753 14.4867 65.2139 14.4859 64.3532 14.4875C64.2898 14.0378 64.3465 13.5841 64.3495 13.1328C65.1251 13.1097 65.906 13.1853 66.6771 13.0898C66.6756 12.8255 66.6749 12.5613 66.6741 12.297C65.8978 12.2978 65.1214 12.2994 64.345 12.2962C64.3502 11.9141 64.3554 11.5329 64.3726 11.1516C65.2019 11.1731 66.0313 11.1253 66.8621 11.1452C66.8621 10.8786 66.8621 10.6127 66.8621 10.3469C65.718 10.3493 64.5747 10.3461 63.4306 10.3485ZM67.8018 10.3477C67.7921 10.44 67.7869 10.5323 67.7787 10.6247C67.7861 12.1824 67.7272 13.7425 67.7839 15.2994C68.5305 15.3416 69.2837 15.3265 70.031 15.2739C70.4561 15.2031 70.8939 15.0288 71.1632 14.6515C71.7113 13.916 71.7568 12.9011 71.6017 12.0112C71.4734 11.2216 70.9253 10.475 70.1489 10.3612C69.3688 10.2927 68.5819 10.2856 67.8018 10.3477ZM59.3637 19.1026C58.7731 19.538 58.7149 20.5513 59.2429 21.0663C59.6762 21.4642 60.2557 21.5876 60.7972 21.7221C61.0582 21.8073 61.3714 21.8766 61.5258 22.1432C61.5586 22.3374 61.5422 22.5619 61.4326 22.7282C61.0672 23.1175 60.434 23.1613 60.0089 22.8628C59.759 22.6877 59.6785 22.3709 59.5808 22.0899C59.4189 22.1169 59.2563 22.1305 59.0967 22.1607C58.9811 22.1655 58.8648 22.1679 58.7514 22.1719C58.7417 22.2443 58.7343 22.3175 58.7276 22.3908C58.7992 22.6335 58.8596 22.8835 58.9856 23.1024C59.2325 23.5019 59.6419 23.7447 60.076 23.8339C60.5503 23.9071 61.0351 23.8856 61.4997 23.7566C61.9107 23.5775 62.3052 23.248 62.4171 22.7688C62.5327 22.2658 62.4685 21.6545 62.0807 21.2995C61.5199 20.7152 60.6659 20.7853 59.9984 20.4311C59.7478 20.3292 59.6874 19.9511 59.8888 19.7664C60.2326 19.4839 60.739 19.4886 61.1149 19.6964C61.3155 19.8046 61.3692 20.0474 61.4281 20.2583C61.7272 20.2639 62.027 20.2615 62.3231 20.205C62.3678 19.5635 61.9025 19.0023 61.3379 18.8542C60.689 18.6759 59.9343 18.6903 59.3637 19.1026ZM29.9819 18.8383C29.9729 20.1859 30.0013 21.5343 29.9669 22.8803C29.9819 23.1835 29.9759 23.4876 29.9916 23.7909C30.9417 23.7949 31.8978 23.841 32.845 23.7344C33.643 23.5974 34.0905 22.5507 33.7437 21.7962C33.611 21.469 33.3156 21.2724 33.0136 21.1538C33.3231 20.9532 33.5901 20.634 33.6341 20.2368C33.7243 19.5993 33.2425 18.9553 32.6474 18.8797C31.7621 18.7929 30.8694 18.8208 29.9819 18.8383ZM37.4056 18.8343C37.3937 19.8619 37.4131 20.8903 37.3959 21.9187C37.3452 22.2371 37.384 22.6184 37.1215 22.8453C36.7672 23.1103 36.2772 23.0896 35.9043 22.8803C35.6478 22.7044 35.5374 22.3669 35.5381 22.0533C35.5329 20.9954 35.5486 19.9368 35.5314 18.8797L35.4904 18.832C35.1958 18.8136 34.8997 18.8208 34.6051 18.8383C34.626 20.0538 34.5604 21.2724 34.6484 22.4847C34.72 23.0586 35.0772 23.5823 35.6068 23.7551C36.2698 23.9429 37.0156 23.9556 37.6413 23.6253C38.0657 23.3849 38.2447 22.8819 38.2946 22.3987C38.279 21.8033 38.3513 21.2103 38.3334 20.6149C38.3178 20.0187 38.3722 19.4186 38.2984 18.8248C38.0008 18.8256 37.7032 18.8184 37.4056 18.8343ZM39.4283 19.5658C39.2359 19.9543 39.259 20.4486 39.4693 20.8227C39.7669 21.2883 40.2867 21.5032 40.7834 21.6179C41.1899 21.7396 41.6597 21.781 41.9581 22.1384C41.9491 22.3478 41.9812 22.5866 41.8335 22.7537C41.574 23.0649 41.1488 23.0657 40.7894 23.0387C40.3784 22.9495 40.0861 22.5547 40.0286 22.1217C39.8004 22.1249 39.5745 22.1583 39.3477 22.1758C39.2933 22.1886 39.1836 22.2133 39.1285 22.226C39.1762 22.6486 39.3291 23.0554 39.5976 23.3738C39.8392 23.5911 40.1152 23.7781 40.4344 23.8267C41.0392 23.9333 41.7 23.9127 42.2512 23.599C43.0328 23.131 43.1334 21.7771 42.4063 21.2063C41.8283 20.7439 41.0631 20.767 40.4284 20.4422C40.1815 20.3443 40.1062 19.9654 40.2971 19.7728C40.6335 19.5348 41.081 19.5165 41.4554 19.6534C41.7052 19.7505 41.7671 20.0394 41.873 20.2655C42.1549 20.2759 42.4398 20.244 42.7233 20.2591C42.7382 20.2337 42.768 20.1827 42.7829 20.1572C42.7225 19.7792 42.5935 19.3828 42.2929 19.1456C41.7731 18.7571 41.0974 18.6847 40.4858 18.8025C40.057 18.8837 39.6125 19.1225 39.4283 19.5658ZM43.6495 18.8813C43.5958 19.2721 43.6585 19.6685 43.6316 20.0609C43.6324 21.3042 43.6212 22.5468 43.6376 23.7901C43.9412 23.8044 44.2454 23.7988 44.5497 23.8004C44.5811 22.2339 44.552 20.6659 44.5639 19.0986C44.5587 19.0023 44.596 18.8065 44.4491 18.8264C44.1865 18.8511 43.8897 18.7555 43.6495 18.8813ZM45.5096 18.8304C45.526 19.2793 45.4895 19.7266 45.5111 20.1756C45.4954 21.0384 45.4947 21.9004 45.4947 22.7633C45.4969 23.1095 45.476 23.4582 45.535 23.8012C45.8079 23.7996 46.0801 23.7996 46.3531 23.7988C46.368 22.7227 46.3188 21.6433 46.3792 20.5696C47.0333 21.6282 47.6284 22.7267 48.2624 23.7988C48.5704 23.7996 48.8784 23.8004 49.1864 23.798C49.1827 23.0013 49.1917 22.2045 49.1864 21.4077C49.217 20.681 49.1529 19.9527 49.2081 19.226C49.2006 19.0946 49.2245 18.9322 49.1365 18.8288C48.8792 18.8168 48.6211 18.8272 48.3668 18.871C48.366 19.0421 48.3608 19.2132 48.3526 19.3852C48.3481 20.3125 48.325 21.2398 48.328 22.1671C47.7806 21.2239 47.2391 20.2759 46.6939 19.3302C46.5903 19.1615 46.5105 18.9649 46.3673 18.8304C46.0816 18.8144 45.7952 18.8264 45.5096 18.8304ZM50.2477 18.8256C50.2127 19.023 50.1925 19.2236 50.1925 19.425C50.1933 20.564 50.1925 21.703 50.1933 22.8429C50.1948 23.1597 50.1769 23.4781 50.2231 23.7933C51.3895 23.8092 52.5567 23.7941 53.7232 23.8012C53.7411 23.5226 53.7351 23.2432 53.7359 22.9639C52.867 22.9583 51.9981 22.9742 51.1293 22.9559C51.1225 22.5101 51.124 22.0652 51.1285 21.6202C51.9109 21.5988 52.6932 21.6171 53.4756 21.6107C53.4741 21.3321 53.4748 21.0527 53.4741 20.7741C52.6955 20.7733 51.9161 20.7765 51.1375 20.7725C51.1151 20.4016 51.1278 20.0299 51.1375 19.659C51.9743 19.6629 52.8118 19.6598 53.6486 19.6614C53.6665 19.3836 53.6643 19.105 53.6523 18.828C52.5172 18.8391 51.3836 18.8192 50.2477 18.8256ZM55.2722 18.9506C54.7964 19.1718 54.4705 19.7219 54.5316 20.2782C54.5846 20.6492 54.7554 21.0193 55.0694 21.2111C55.6869 21.6951 56.5461 21.5725 57.1532 22.0676C57.2091 22.2658 57.2359 22.4926 57.1144 22.6709C56.828 23.088 56.2559 23.1135 55.8316 22.9678C55.4907 22.8381 55.3379 22.4696 55.2513 22.1241C54.95 22.1185 54.6517 22.1631 54.3526 22.1902C54.4071 22.6049 54.5451 23.0172 54.8091 23.3348C55.1253 23.6906 55.5892 23.8458 56.0404 23.8538C56.3141 23.9135 56.5893 23.8323 56.8653 23.8354C57.1345 23.7415 57.4224 23.6635 57.6417 23.4613C58.2845 22.9129 58.3039 21.6991 57.6148 21.1833C57.0569 20.7399 56.3231 20.7606 55.7093 20.4581C55.5109 20.373 55.3311 20.1175 55.4602 19.8954C55.6466 19.5595 56.0687 19.569 56.3909 19.5802C56.7452 19.5826 57.0405 19.8922 57.0801 20.2623C57.3657 20.2504 57.6528 20.2679 57.9392 20.2528C57.9885 20.1939 57.981 20.1079 57.9989 20.0355C57.9019 19.7537 57.8303 19.4385 57.6088 19.2339C57.4306 19.0341 57.1852 18.9267 56.9413 18.8519C56.3939 18.6982 55.7973 18.7173 55.2722 18.9506Z" fill="#C2C7CF"/>
<path d="M12.5531 1.91193C12.6903 1.89999 12.8014 2.03451 12.9245 2.08466C12.8186 2.41021 12.6754 2.74293 12.7776 3.09395C12.9372 3.59462 13.3742 3.90187 13.7508 4.20672C14.8323 5.00031 15.9704 5.72385 16.931 6.68539C17.7484 7.47579 18.4151 8.61403 18.2518 9.83744C18.1727 10.487 17.9042 11.0943 17.5589 11.6292C16.8049 12.7435 16.0531 13.8603 15.2708 14.9524C15.1716 15.1625 14.9866 14.9476 14.8658 14.8823C15.0045 14.4987 15.1992 14.1182 15.1798 13.6931C15.1694 13.1439 14.8502 12.6751 14.4959 12.3058C13.4615 11.2065 12.081 10.5681 11.0585 9.45458C10.4678 8.83372 10.0419 8.00034 10.0404 7.09929C10.0703 5.86713 10.655 4.75595 11.2718 3.75063C11.6827 3.12579 12.0854 2.4906 12.5531 1.91193Z" fill="#C2C7CF"/>
<path d="M10.4864 10.3421C10.6229 10.4265 10.7579 10.5156 10.8757 10.6286C10.7601 10.8189 10.7706 11.0378 10.8191 11.2487C11.1092 11.6467 11.5358 11.8823 11.8968 12.1951C12.2428 12.4379 12.562 12.7205 12.9006 12.9736C13.5763 13.4965 14.3176 14.0871 14.5063 15.0113C14.5063 15.219 14.5063 15.4276 14.5063 15.6353C14.3579 16.2992 14.0417 16.9009 13.6658 17.4462C13.3429 17.9102 13.0341 18.3878 12.6881 18.8327C12.5367 18.7484 12.3994 18.6393 12.26 18.5343C12.3688 18.2549 12.4046 17.8816 12.1705 17.6611C11.5843 17.0681 10.8541 16.6749 10.2179 16.1487C9.52881 15.6091 8.82104 14.8975 8.72706 13.9391C8.64279 13.1614 8.9963 12.4347 9.40724 11.8218C9.61756 11.4636 9.89948 11.1619 10.1247 10.8149C10.2463 10.6581 10.3649 10.4981 10.4864 10.3421Z" fill="#C2C7CF"/>
<path d="M44.7862 11.1834C45.2195 11.185 45.6535 11.1818 46.0868 11.1826C46.3389 11.1882 46.6246 11.3347 46.6805 11.6212C46.7036 11.821 46.7066 12.0487 46.5813 12.2142C46.4269 12.4132 46.1696 12.4594 45.9407 12.4578C45.5551 12.4578 45.1702 12.4554 44.7854 12.457C44.7869 12.0327 44.7862 11.6077 44.7862 11.1834Z" fill="#C2C7CF"/>
<path d="M68.6916 11.2877C68.6871 11.0776 68.9384 11.158 69.0637 11.1405C69.5127 11.1627 70.0482 11.1038 70.3942 11.4772C70.7828 11.9906 70.7105 12.6886 70.6963 13.3047C70.6486 13.7146 70.5397 14.205 70.1459 14.3856C69.6805 14.5544 69.1778 14.4724 68.6968 14.4772C68.6819 13.4146 68.6908 12.3511 68.6916 11.2877Z" fill="#C2C7CF"/>
<path d="M53.8462 11.1842C54.425 11.2145 55.1216 11.0394 55.5765 11.5321C55.8487 11.9181 55.8622 12.4331 55.8637 12.898C55.8554 13.3437 55.839 13.8364 55.5631 14.1994C55.4497 14.3618 55.261 14.427 55.0873 14.4835C54.909 14.4907 54.7323 14.5146 54.5548 14.5154C54.3191 14.5313 54.0827 14.5313 53.847 14.513C53.8477 13.4034 53.85 12.2938 53.8462 11.1842Z" fill="#C2C7CF"/>
<path d="M31.167 13.374C31.3601 12.7595 31.5771 12.1529 31.789 11.5456C32.0582 12.1314 32.2245 12.769 32.4542 13.3748C32.0254 13.3708 31.5958 13.3716 31.167 13.374Z" fill="#C2C7CF"/>
<path d="M7.63968 19.3414C10.9623 19.3454 14.2848 19.3398 17.6074 19.3438C17.7372 19.7664 17.8759 20.1875 17.9758 20.6197C17.9579 20.634 17.9221 20.6619 17.9042 20.6762C17.6298 20.6547 17.3546 20.6452 17.0794 20.6603C16.526 20.7264 15.9681 20.6364 15.4132 20.6834C15.3282 20.7566 15.3006 20.8768 15.2454 20.9739L15.2514 21.044C15.0739 21.5096 14.9575 21.9983 14.7845 22.4664C14.5936 22.4807 14.4012 22.491 14.2095 22.4727C13.1027 22.5022 11.9945 22.4743 10.8862 22.4879C10.7325 22.4648 10.526 22.5428 10.4081 22.413C10.2232 21.8423 10.0374 21.2716 9.86964 20.6953C9.42812 20.6587 8.98288 20.65 8.53987 20.6691C8.44067 20.6627 8.34148 20.6619 8.24303 20.6667C7.9104 20.673 7.57777 20.6635 7.24514 20.6691C7.33688 20.2146 7.51886 19.7871 7.63968 19.3414Z" fill="#C2C7CF"/>
<path d="M30.9126 19.659C31.3765 19.6797 31.8456 19.6224 32.3058 19.69C32.6839 19.7147 32.8823 20.2798 32.625 20.5672C32.531 20.7367 32.3364 20.755 32.1783 20.8155C31.7517 20.8123 31.3258 20.8195 30.9 20.8099C30.9179 20.4263 30.8753 20.0418 30.9126 19.659Z" fill="#C2C7CF"/>
<path d="M30.9037 21.6457C31.3191 21.6394 31.7353 21.6545 32.1507 21.6505C32.4087 21.6624 32.722 21.7373 32.851 22.0031C32.9129 22.2371 32.9315 22.5197 32.7943 22.729C32.6302 22.9193 32.3781 22.9654 32.1469 22.9647C31.73 22.9631 31.3131 22.9662 30.897 22.9607C30.8768 22.5221 30.9007 22.0843 30.9037 21.6457Z" fill="#C2C7CF"/>
<path d="M4.5125 23.482C5.27099 23.4319 6.03097 23.4956 6.7902 23.447C7.36969 23.5393 8.01109 23.4056 8.53166 23.7551C9.17902 24.1602 9.44304 25.14 9.05373 25.8349C8.9247 26.1087 8.70693 26.3093 8.47051 26.4733C8.92321 26.6914 9.39233 27.0496 9.47064 27.6115C9.60563 28.2483 9.43185 28.9567 8.9784 29.4041C8.70693 29.7097 8.31165 29.8204 7.93576 29.8856C7.60313 29.888 7.2705 29.8817 6.94011 29.9246C6.12419 29.9342 5.30902 29.9254 4.49311 29.9278C4.53189 29.412 4.47521 28.8947 4.49236 28.3781C4.4946 28.113 4.50504 27.848 4.49386 27.5829C4.48491 27.2159 4.5386 26.849 4.4946 26.4829C4.53413 25.9814 4.48789 25.4775 4.49833 24.9745C4.52593 24.4778 4.50206 23.9795 4.5125 23.482ZM5.74532 24.5542C5.70356 24.7357 5.69983 24.9235 5.72369 25.109C5.69013 25.347 5.72146 25.5858 5.71922 25.8246C5.72817 25.866 5.74756 25.9472 5.75651 25.9886C5.93774 25.987 6.11897 25.9973 6.29946 26.0116C6.70742 25.9464 7.12507 26.0387 7.53079 25.9511C7.82464 25.8819 8.05211 25.5969 8.04241 25.2714C8.0357 25.2085 8.02228 25.0827 8.01556 25.0199C7.94098 24.8742 7.83284 24.7556 7.72022 24.6442C7.47112 24.5805 7.21382 24.6115 6.96323 24.5646C6.55751 24.5455 6.15104 24.5606 5.74532 24.5542ZM5.70878 27.1133C5.69908 27.6513 5.71027 28.1902 5.71996 28.7283C5.7401 28.749 5.78038 28.7896 5.80126 28.8103C6.3897 28.8047 6.97665 28.7808 7.56509 28.7737C7.83881 28.7227 8.13042 28.5755 8.21768 28.2698C8.29151 27.9546 8.25721 27.5725 8.00736 27.3513C7.71351 27.0918 7.31152 27.1809 6.96397 27.1109C6.54558 27.0973 6.12643 27.095 5.70878 27.1133Z" fill="#C2C7CF"/>
<path d="M10.1463 23.4836C10.3335 23.4836 10.5207 23.4844 10.7064 23.4574C11.3255 23.4749 11.943 23.4677 12.562 23.459C13.0871 23.533 13.6666 23.4311 14.1379 23.7439C14.6413 24.0424 14.9434 24.6919 14.8509 25.3C14.8136 25.7999 14.4869 26.2162 14.1029 26.4765C14.5317 26.685 14.9396 27.0034 15.0993 27.4977C15.2104 28.105 15.1388 28.7816 14.7405 29.2592C14.4519 29.6556 13.9828 29.8307 13.5301 29.8841C13.1781 29.8833 12.8268 29.9119 12.4748 29.9079C11.6976 29.9501 10.919 29.9175 10.1411 29.9302C10.0822 29.5076 10.1128 29.0793 10.1061 28.6535C10.1098 28.004 10.0964 27.3537 10.1202 26.7049C10.0926 26.2488 10.1359 25.7935 10.1225 25.3375C10.1053 25.0549 10.1098 24.7723 10.121 24.4897C10.1143 24.1538 10.1277 23.8187 10.1463 23.4836ZM11.3799 24.6115C11.3642 25.0748 11.3762 25.5396 11.3769 26.0029C11.8893 26.0761 12.3994 25.9695 12.9125 25.9886C13.1706 25.9862 13.4354 25.8668 13.5838 25.6351C13.774 25.2602 13.6069 24.6664 13.1669 24.6163C12.5881 24.5558 12.0041 24.5439 11.4224 24.5622L11.3799 24.6115ZM11.4291 27.1085C11.4165 27.122 11.3918 27.1483 11.3792 27.1618C11.3724 27.7174 11.3613 28.2738 11.3889 28.8286C11.4433 28.819 11.5522 28.7991 11.6066 28.7888C12.1496 28.8533 12.691 28.7577 13.234 28.7753C13.4943 28.7036 13.762 28.5404 13.8485 28.2515C13.9104 27.953 13.8918 27.5829 13.6494 27.3783C13.3779 27.0981 12.973 27.1738 12.6321 27.1117C12.2316 27.0997 11.8296 27.095 11.4291 27.1085Z" fill="#C2C7CF"/>
<path d="M15.775 23.4796C16.174 23.4653 16.5737 23.5011 16.972 23.4661C17.7402 23.4964 18.5098 23.4574 19.2765 23.5242C19.7046 23.6357 20.1267 23.8872 20.3289 24.3234C20.5496 24.6903 20.5287 25.1432 20.4646 25.5555C20.3087 25.9297 20.076 26.2624 19.7419 26.4757C20.1178 26.642 20.4937 26.8936 20.657 27.3099C20.9374 27.961 20.7868 28.7538 20.3684 29.2974C20.1969 29.506 19.9582 29.6246 19.7352 29.7575C19.1878 29.9461 18.6135 29.8769 18.0482 29.8904C17.2964 29.9581 16.5402 29.9207 15.7861 29.9246C15.7563 27.7771 15.7809 25.628 15.775 23.4796ZM17.004 24.5693C17.0048 25.0366 17.0048 25.5038 17.004 25.971C17.0689 25.9886 17.1338 26.0077 17.1987 26.0284C17.6932 26.0252 18.1869 25.9758 18.6821 25.9894C18.8566 25.9273 19.061 25.8875 19.1706 25.7116C19.366 25.4696 19.3757 25.07 19.1826 24.824C19.0215 24.6083 18.7425 24.5638 18.4986 24.5614C18.0004 24.5582 17.5015 24.5415 17.004 24.5693ZM17.004 27.1037C17.0048 27.6649 17.004 28.2268 17.0048 28.7888C17.638 28.8461 18.2697 28.7641 18.9029 28.7753C19.0796 28.7108 19.2728 28.6511 19.3877 28.4792C19.5965 28.1735 19.6114 27.6951 19.3451 27.4213C19.1363 27.1387 18.7619 27.1539 18.4591 27.1196C17.9743 27.091 17.4888 27.1061 17.004 27.1037Z" fill="#C2C7CF"/>
<path d="M21.8906 28.4107C22.2076 28.3996 22.5551 28.5619 22.6871 28.8867C22.7908 29.1016 22.7416 29.3515 22.7132 29.5808C22.5834 29.8196 22.3806 30.0281 22.1136 30.0639C21.857 30.1427 21.6094 29.9955 21.4043 29.8458C21.2082 29.5649 21.1075 29.1764 21.276 28.8533C21.4013 28.6065 21.6407 28.4664 21.8906 28.4107ZM21.7265 28.671C21.7273 28.6901 21.728 28.7275 21.7287 28.7466C21.8869 28.7434 22.048 28.7474 22.2046 28.7832C22.3552 28.8549 22.3343 29.0546 22.3321 29.1995C22.2806 29.225 22.1785 29.2759 22.1278 29.3014C22.215 29.4534 22.3067 29.6023 22.4044 29.7479C22.5439 29.5354 22.6304 29.2704 22.5618 29.0117C22.5133 28.9281 22.4671 28.8429 22.4231 28.7577C22.2187 28.6137 21.948 28.4927 21.7265 28.671ZM21.3901 29.0578C21.3141 29.3125 21.4267 29.572 21.5684 29.7734C21.7556 29.4686 21.6221 29.0849 21.6765 28.7458C21.5177 28.7386 21.4125 28.9066 21.3901 29.0578ZM21.8675 28.8756C21.8451 28.9703 21.8227 29.065 21.8018 29.1597C21.9152 29.1629 22.0286 29.1557 22.1412 29.1422C22.1516 29.0952 22.1725 29.0029 22.1829 28.9567C22.0785 28.9273 21.9726 28.9002 21.8675 28.8756ZM21.8242 29.6978C21.7638 29.7463 21.7041 29.7965 21.6452 29.8466C21.8809 29.9294 22.1367 29.9366 22.3478 29.7798C22.3075 29.7599 22.2262 29.7201 22.1859 29.6994C22.0994 29.5529 22.0039 29.4128 21.9055 29.2759C21.7929 29.3921 21.8167 29.5505 21.8242 29.6978Z" fill="#C2C7CF"/>
</g>
</svg>
