<svg width="148" height="42" viewBox="0 0 148 42" fill="none" xmlns="http://www.w3.org/2000/svg">
<rect width="148" height="42" rx="4" fill="#233751"/>
<path d="M51.6329 10.7567C51.6329 11.6334 51.3607 12.3356 50.8244 12.8593C50.2078 13.4801 49.4048 13.7925 48.4207 13.7925C47.4802 13.7925 46.6771 13.4749 46.0183 12.8488C45.3582 12.2135 45.0288 11.4339 45.0288 10.5007C45.0288 9.56755 45.3582 8.78792 46.0183 8.15792C46.6771 7.52661 47.4802 7.20898 48.4207 7.20898C48.8889 7.20898 49.3354 7.30217 49.7614 7.47542C50.1861 7.64998 50.5318 7.88623 50.7822 8.17761L50.2133 8.73149C49.7764 8.23405 49.1816 7.98861 48.4207 7.98861C47.7347 7.98861 47.1399 8.21961 46.6349 8.68555C46.1354 9.1528 45.8849 9.75786 45.8849 10.5007C45.8849 11.2436 46.1354 11.8539 46.6349 12.3212C47.1399 12.7819 47.7347 13.0181 48.4207 13.0181C49.1489 13.0181 49.7614 12.7819 50.2446 12.3159C50.5631 12.0075 50.7441 11.5822 50.7918 11.0389H48.4207V10.2802H51.5839C51.622 10.4443 51.6329 10.6031 51.6329 10.7567Z" fill="white" stroke="white" stroke-width="0.16" stroke-miterlimit="10"/>
<path d="M56.6504 8.1256H53.6791V10.1206H56.3577V10.8792H53.6791V12.8742H56.6504V13.6473H52.8379V7.35254H56.6504V8.1256Z" fill="white" stroke="white" stroke-width="0.16" stroke-miterlimit="10"/>
<path d="M60.1925 13.6473H59.3513V8.1256H57.5288V7.35254H62.0164V8.1256H60.1925V13.6473Z" fill="white" stroke="white" stroke-width="0.16" stroke-miterlimit="10"/>
<path d="M65.2642 13.6473V7.35254H66.104V13.6473H65.2642Z" fill="white" stroke="white" stroke-width="0.16" stroke-miterlimit="10"/>
<path d="M69.8268 13.6473H68.9924V8.1256H67.1631V7.35254H71.6561V8.1256H69.8268V13.6473Z" fill="white" stroke="white" stroke-width="0.16" stroke-miterlimit="10"/>
<path d="M80.1519 12.8383C79.5081 13.4749 78.7104 13.7925 77.759 13.7925C76.8022 13.7925 76.0046 13.4749 75.3607 12.8383C74.7183 12.203 74.3984 11.4234 74.3984 10.5007C74.3984 9.57805 74.7183 8.79842 75.3607 8.16317C76.0046 7.52661 76.8022 7.20898 77.759 7.20898C78.705 7.20898 79.5026 7.52661 80.1464 8.16842C80.7943 8.80892 81.1142 9.5833 81.1142 10.5007C81.1142 11.4234 80.7943 12.203 80.1519 12.8383ZM75.9828 12.3107C76.4673 12.7819 77.0567 13.0181 77.759 13.0181C78.4559 13.0181 79.0507 12.7819 79.5298 12.3107C80.013 11.8395 80.258 11.2344 80.258 10.5007C80.258 9.76705 80.013 9.16198 79.5298 8.6908C79.0507 8.21961 78.4559 7.98336 77.759 7.98336C77.0567 7.98336 76.4673 8.21961 75.9828 8.6908C75.4996 9.16198 75.2546 9.76705 75.2546 10.5007C75.2546 11.2344 75.4996 11.8395 75.9828 12.3107Z" fill="white" stroke="white" stroke-width="0.16" stroke-miterlimit="10"/>
<path d="M82.2939 13.6473V7.35254H83.3148L86.4889 12.2482H86.5256L86.4889 11.038V7.35254H87.3287V13.6473H86.4521L83.1283 8.51016H83.0916L83.1283 9.72554V13.6473H82.2939Z" fill="white" stroke="white" stroke-width="0.16" stroke-miterlimit="10"/>
<path d="M74.1914 22.84C71.6339 22.84 69.5446 24.7169 69.5446 27.3064C69.5446 29.875 71.6339 31.7716 74.1914 31.7716C76.7544 31.7716 78.8437 29.875 78.8437 27.3064C78.8437 24.7169 76.7544 22.84 74.1914 22.84ZM74.1914 30.0128C72.7881 30.0128 71.5808 28.8959 71.5808 27.3064C71.5808 25.696 72.7881 24.5988 74.1914 24.5988C75.5947 24.5988 76.8075 25.696 76.8075 27.3064C76.8075 28.8959 75.5947 30.0128 74.1914 30.0128ZM64.0525 22.84C61.4895 22.84 59.4057 24.7169 59.4057 27.3064C59.4057 29.875 61.4895 31.7716 64.0525 31.7716C66.6141 31.7716 68.6993 29.875 68.6993 27.3064C68.6993 24.7169 66.6141 22.84 64.0525 22.84ZM64.0525 30.0128C62.6478 30.0128 61.4365 28.8959 61.4365 27.3064C61.4365 25.696 62.6478 24.5988 64.0525 24.5988C65.4558 24.5988 66.6631 25.696 66.6631 27.3064C66.6631 28.8959 65.4558 30.0128 64.0525 30.0128ZM51.9876 24.2089V26.1068H56.6875C56.5501 27.1673 56.1826 27.9469 55.6191 28.4903C54.9331 29.1466 53.8646 29.875 51.9876 29.875C49.0953 29.875 46.8304 27.6241 46.8304 24.835C46.8304 22.0459 49.0953 19.795 51.9876 19.795C53.5515 19.795 54.6894 20.3843 55.5292 21.1482L56.9162 19.8108C55.7416 18.7293 54.179 17.8984 51.9876 17.8984C48.0213 17.8984 44.688 21.0104 44.688 24.835C44.688 28.6596 48.0213 31.7716 51.9876 31.7716C54.1314 31.7716 55.7416 31.0943 57.0074 29.8238C58.3045 28.573 58.7088 26.8143 58.7088 25.3941C58.7088 24.9531 58.6707 24.5476 58.6026 24.2089H51.9876ZM101.322 25.6803C100.94 24.6814 99.7599 22.84 97.3562 22.84C94.9742 22.84 92.9911 24.6499 92.9911 27.3064C92.9911 29.8081 94.9538 31.7716 97.5848 31.7716C99.7122 31.7716 100.94 30.5208 101.445 29.7923L99.8661 28.7778C99.3393 29.5206 98.622 30.0128 97.5848 30.0128C96.5545 30.0128 95.8154 29.5574 95.3417 28.6596L101.536 26.1882L101.322 25.6803ZM95.0069 27.1673C94.9538 25.4453 96.3939 24.5633 97.4256 24.5633C98.2341 24.5633 98.9201 24.9531 99.1488 25.5109L95.0069 27.1673ZM89.9721 31.4999H92.0084V18.3749H89.9721V31.4999ZM86.6374 23.8349H86.5694C86.112 23.3125 85.2396 22.84 84.1343 22.84C81.815 22.84 79.6944 24.8035 79.6944 27.3209C79.6944 29.8238 81.815 31.7716 84.1343 31.7716C85.2396 31.7716 86.112 31.2951 86.5694 30.757H86.6374V31.3975C86.6374 33.1051 85.6914 34.0225 84.1656 34.0225C82.9216 34.0225 82.1498 33.1563 81.8313 32.4278L80.0605 33.1405C80.571 34.3244 81.9225 35.7812 84.1656 35.7812C86.553 35.7812 88.5675 34.4268 88.5675 31.1311V23.1117H86.6374V23.8349ZM84.3086 30.0128C82.9053 30.0128 81.7306 28.8801 81.7306 27.3209C81.7306 25.7472 82.9053 24.5988 84.3086 24.5988C85.6915 24.5988 86.7817 25.7472 86.7817 27.3209C86.7817 28.8801 85.6915 30.0128 84.3086 30.0128ZM110.856 18.3749H105.986V31.4999H108.016V26.5268H110.856C113.111 26.5268 115.323 24.9531 115.323 22.4502C115.323 19.9486 113.106 18.3749 110.856 18.3749ZM110.909 24.7011H108.016V20.2006H110.909C112.425 20.2006 113.291 21.4146 113.291 22.4502C113.291 23.4661 112.425 24.7011 110.909 24.7011ZM123.462 22.8151C121.995 22.8151 120.469 23.4398 119.842 24.8245L121.644 25.5529C122.032 24.8245 122.745 24.5883 123.499 24.5883C124.553 24.5883 125.621 25.1986 125.637 26.2761V26.4139C125.27 26.2092 124.483 25.906 123.515 25.906C121.574 25.906 119.597 26.9363 119.597 28.8591C119.597 30.6179 121.186 31.7506 122.974 31.7506C124.34 31.7506 125.094 31.156 125.568 30.4643H125.637V31.4789H127.599V26.4441C127.599 24.1171 125.797 22.8151 123.462 22.8151ZM123.217 30.0076C122.553 30.0076 121.627 29.6899 121.627 28.8959C121.627 27.88 122.782 27.4902 123.781 27.4902C124.675 27.4902 125.094 27.6805 125.637 27.9312C125.478 29.1466 124.393 30.0076 123.217 30.0076ZM134.745 23.1025L132.41 28.7922H132.341L129.928 23.1025H127.738L131.364 31.0536L129.295 35.4781H131.417L137.004 23.1025H134.745ZM116.439 31.4999H118.475V18.3749H116.439V31.4999Z" fill="white"/>
<path d="M11.3629 7.91638C11.043 8.23926 10.8579 8.74194 10.8579 9.39294V32.6137C10.8579 33.2647 11.043 33.7674 11.3629 34.0903L11.4418 34.1611L24.9359 21.1543V20.8471L11.4418 7.84026L11.3629 7.91638Z" fill="url(#paint0_linear_2283_212)"/>
<path d="M29.4286 25.4912L24.9355 21.1534V20.8463L29.434 16.5085L29.5347 16.5649L34.8621 19.4878C36.3825 20.3173 36.3825 21.6823 34.8621 22.5171L29.5347 25.4348L29.4286 25.4912Z" fill="url(#paint1_linear_2283_212)"/>
<path d="M29.5345 25.4351L24.9353 21.0002L11.3623 34.0897C11.8673 34.6016 12.6907 34.6633 13.6272 34.1514L29.5345 25.4351Z" fill="url(#paint2_linear_2283_212)"/>
<path d="M29.5345 16.5651L13.6272 7.84875C12.6907 7.34213 11.8673 7.40381 11.3623 7.91569L24.9353 21L29.5345 16.5651Z" fill="url(#paint3_linear_2283_212)"/>
<defs>
<linearGradient id="paint0_linear_2283_212" x1="23.7378" y1="32.8555" x2="6.1279" y2="14.5934" gradientUnits="userSpaceOnUse">
<stop stop-color="#00A0FF"/>
<stop offset="0.0066" stop-color="#00A1FF"/>
<stop offset="0.2601" stop-color="#00BEFF"/>
<stop offset="0.5122" stop-color="#00D2FF"/>
<stop offset="0.7604" stop-color="#00DFFF"/>
<stop offset="1" stop-color="#00E3FF"/>
</linearGradient>
<linearGradient id="paint1_linear_2283_212" x1="36.8419" y1="20.9984" x2="10.4942" y2="20.9984" gradientUnits="userSpaceOnUse">
<stop stop-color="#FFE000"/>
<stop offset="0.4087" stop-color="#FFBD00"/>
<stop offset="0.7754" stop-color="#FFA500"/>
<stop offset="1" stop-color="#FF9C00"/>
</linearGradient>
<linearGradient id="paint2_linear_2283_212" x1="27.0336" y1="18.5893" x2="3.15317" y2="-6.17563" gradientUnits="userSpaceOnUse">
<stop stop-color="#FF3A44"/>
<stop offset="1" stop-color="#C31162"/>
</linearGradient>
<linearGradient id="paint3_linear_2283_212" x1="7.9457" y1="41.815" x2="18.6094" y2="30.7565" gradientUnits="userSpaceOnUse">
<stop stop-color="#32A071"/>
<stop offset="0.0685" stop-color="#2DA771"/>
<stop offset="0.4762" stop-color="#15CF74"/>
<stop offset="0.8009" stop-color="#06E775"/>
<stop offset="1" stop-color="#00F076"/>
</linearGradient>
</defs>
</svg>
