<svg width="80" height="36" viewBox="0 0 80 36" fill="none" xmlns="http://www.w3.org/2000/svg">
<path d="M41.6361 9.80388H34.4373C31.4128 3.98447 25.2929 0 18.218 0C8.15388 0 0 8.05631 0 18C0 27.9437 8.15388 36 18.218 36C24.6385 36 30.2631 32.732 33.5176 27.7689H31.9257V14.1553H27.044V10.8524L28.1052 9.87379V13.1068H32.987V26.7204H36.7544V13.1068H41.6361V9.80388ZM25.2929 26.7204H11.7444V23.2777L20.4289 13.1068H12.0628V9.80388H24.9923V13.1068L16.4846 23.2777H25.2929V26.7204Z" fill="#85909F"/>
<path d="M45.3504 14.8194C41.7245 14.8194 38.8238 17.2136 38.8238 20.9184C38.8238 24.6233 41.7245 27.0175 45.3504 27.0175C47.243 27.0175 49.1532 26.1786 50.3029 24.7282L47.7736 22.8932C47.1722 23.6971 46.3763 24.3087 45.1912 24.3087C43.7939 24.3087 42.7504 23.4175 42.4674 22.0544H50.8866V20.9359C50.8689 17.2136 48.7287 14.8194 45.3504 14.8194ZM42.4497 19.5903C42.5381 18.4718 43.4225 17.3883 45.0144 17.3883C46.3232 17.3883 47.2607 18.3845 47.243 19.5903H42.4497Z" fill="#85909F"/>
<path d="M55.5384 8.65049H51.9124V26.7204H55.5384V8.65049Z" fill="#85909F"/>
<path d="M63.0909 23.8544C61.2868 23.8544 60.1901 22.666 60.1901 20.9184C60.1901 19.1709 61.2868 17.9825 63.0909 17.9825C63.8337 17.9825 64.5235 18.367 64.8773 18.8738L67.2651 16.3922C66.1331 15.2388 64.4528 14.8369 63.0732 14.8369C59.4473 14.8369 56.5465 17.2311 56.5465 20.9359C56.5465 24.6408 59.4473 27.035 63.0732 27.035C64.4528 27.035 66.1154 26.633 67.2651 25.4796L64.8773 22.9981C64.4705 23.435 63.9045 23.8544 63.0909 23.8544Z" fill="#85909F"/>
<path d="M73.4734 14.8194C69.8475 14.8194 66.9467 17.2136 66.9467 20.9184C66.9467 24.6233 69.8475 27.0175 73.4734 27.0175C77.0993 27.0175 80 24.6233 80 20.9184C80 17.2136 77.0993 14.8194 73.4734 14.8194ZM73.4734 23.8544C71.6516 23.8544 70.5726 22.666 70.5726 20.9184C70.5726 19.1709 71.6693 17.9825 73.4734 17.9825C75.2952 17.9825 76.3741 19.1709 76.3741 20.9184C76.3741 22.6485 75.2952 23.8544 73.4734 23.8544Z" fill="#85909F"/>
</svg>
